<svg width="256.25" height="254.56" viewBox="0 0 256.25 254.56" xmlns="http://www.w3.org/2000/svg" xmlns:xlink="http://www.w3.org/1999/xlink" xml:space="preserve" overflow="visible"><defs></defs><g><path d="M144.61 237.64C143 237.47 141.87 237.35 140.75 237.25 137.64 236.95 133.04 238.31 133.2 233.26 133.35 228.33 137.93 229.87 141.02 229.56 141.99 229.46 142.97 229.43 144.25 229.36 144.25 226.03 144.25 222.95 144.25 219.44 133.63 219.44 123.07 219.44 112.04 219.44 112.04 222.57 112.04 225.77 112.04 229.6 114.22 229.6 116.51 229.09 118.4 229.75 120.08 230.34 121.31 232.22 122.74 233.53 121.38 234.75 120.2 236.54 118.61 237.05 116.67 237.66 114.39 237.2 111.57 237.2 111.57 239.97 111.63 242.24 111.56 244.51 111.35 251.6 108.46 254.52 101.41 254.54 83.24 254.59 65.06 254.58 46.89 254.54 39.52 254.53 36.61 251.62 36.41 244.28 36.35 242.15 36.4 240.01 36.4 237.25 28.82 237.25 21.7 237.26 14.58 237.25 3.88 237.22 0.02 233.43 0.02 222.9 0 184.22 0 145.54 0.01 106.87 0.01 96.79 3.77 93.05 13.91 92.96 20.91 92.9 27.91 92.86 34.91 92.78 35.21 92.78 35.51 92.51 36.38 92.1 36.38 82.75 36.41 73.12 36.37 63.49 36.34 54.97 38.96 47.66 46.44 42.95 49.33 41.13 52.73 40.13 55.88 38.76 48.21 24.55 49.31 13.38 59.27 5.27 68.18-1.98 80.89-1.72 89.53 5.9 98.86 14.12 99.71 25.74 92.14 38.56 95.79 40.35 99.79 41.69 103.06 44.03 109.37 48.54 111.6 55.25 111.56 62.83 111.53 69.8 111.55 76.78 111.55 84.36 117.49 84.36 122.96 84.55 128.41 84.31 134.5 84.05 139.21 85.81 141.75 91.76 141.97 92.27 142.64 92.58 143.99 93.76 144.25 91.39 144.55 89.9 144.56 88.4 144.61 81.07 144.58 73.73 144.58 66.4 144.59 49.88 148.71 44.11 164.19 38.93 156.37 25.35 157.33 13.81 166.95 5.62 175.56-1.71 188.06-1.87 196.83 5.24 206.83 13.35 207.98 24.84 200.21 38.81 203.23 40.06 206.47 40.97 209.23 42.64 216.97 47.32 219.79 54.69 219.76 63.43 219.73 73.07 219.75 82.71 219.75 92.96 227.4 92.96 234.53 92.94 241.66 92.96 252.49 93 256.12 96.61 256.13 107.32 256.14 120.32 256.12 133.32 256.14 146.33 256.14 149.09 256.19 152.21 252.55 152.33 248.44 152.46 248.62 149.03 248.61 146.18 248.57 133.01 248.54 119.84 248.62 106.67 248.64 102.75 247.7 100.38 243.06 100.4 210.38 100.51 177.7 100.46 145.02 100.47 144.23 100.47 143.43 100.62 142.42 100.72 142.42 104.43 142.42 107.87 142.42 112.08 146.76 112.08 151.04 111.99 155.31 112.1 163.32 112.3 167.14 116.19 167.25 124.26 167.33 129.93 167.28 135.6 167.27 141.26 167.25 151.58 164.74 154.47 153.86 156.07 153.86 159.73 154.26 163.56 153.71 167.26 153.39 169.42 151.9 172.61 150.29 173.07 148.35 173.62 145.72 171.78 143.4 170.93 143.13 170.83 142.94 170.45 142.78 170.16 136.08 157.25 125.27 153.23 111.44 155.56 109.82 155.83 108.11 155.63 106.44 155.58 99.02 155.38 94.99 151.52 94.78 144.16 94.64 139.03 94.75 133.9 94.75 128.02 90.11 128.02 86.01 128.11 81.9 128 73.61 127.77 69.77 123.9 69.58 115.58 69.47 110.77 69.56 105.96 69.56 100.81 67.9 100.67 66.64 100.46 65.38 100.46 48.21 100.44 31.03 100.57 13.86 100.37 9.01 100.31 7.43 102.19 7.45 106.85 7.56 139.52 7.49 172.19 7.52 204.87 7.52 210.79 8.22 211.42 14.16 211.44 21.49 211.46 28.82 211.45 36.52 211.45 39.19 201.34 45.74 195.21 56.05 193.28 48.15 178.97 49.28 167.46 59.21 159.31 67.85 152.22 80.71 152.36 89.15 159.64 98.79 167.96 99.78 179.69 91.82 193.24 101.92 195.23 108.6 200.98 111.27 211.22 122.44 211.22 133.55 211.22 144.8 211.22 147.43 201.14 153.97 195.24 164.68 193.23 159.49 186.92 157.16 179.8 159.51 172.53 161.12 167.57 164.26 162.47 168.13 159 176.22 151.73 189.29 152.59 197.52 159.82 206.88 168.05 207.86 179.98 200.42 192.5 204.41 194.68 208.97 196.23 212.23 199.21 215.53 202.22 217.55 206.63 220.8 211.41 227.84 211.41 236.3 211.51 244.75 211.36 248.5 211.29 248.58 208.31 248.58 205.55 248.59 193.88 248.58 182.21 248.6 170.54 248.6 169.04 248.25 167.31 248.88 166.11 249.6 164.71 251.24 162.85 252.44 162.88 253.66 162.9 255.04 164.85 255.97 166.2 256.45 166.89 256.12 168.14 256.12 169.14 256.12 187.48 256.15 205.81 256.11 224.15 256.09 232.77 251.88 237.08 243.29 237.22 235.96 237.35 228.62 237.31 221.29 237.37 220.99 237.37 220.69 237.6 219.71 238 219.71 240.33 219.85 242.94 219.68 245.54 219.31 251.42 216.28 254.48 210.48 254.51 191.64 254.6 172.8 254.59 153.96 254.52 147.86 254.5 144.9 251.45 144.6 245.24 144.51 242.77 144.61 240.3 144.61 237.64ZM203.5 92.47C206.45 92.47 209.12 92.47 212.08 92.47 212.08 81.48 212.31 70.67 212 59.88 211.81 53.19 206.86 47.54 200.06 47.21 188.11 46.64 176.1 46.66 164.16 47.23 157.62 47.54 152.6 52.98 152.35 59.48 151.93 70.42 152.24 81.38 152.24 92.47 155.23 92.47 157.91 92.47 160.85 92.47 160.85 85.67 160.79 79.35 160.88 73.04 160.92 70.18 160.09 66.31 164.68 66.4 168.84 66.48 168.19 70.07 168.22 72.82 168.27 79.29 168.24 85.77 168.24 92.6 177.66 92.6 186.71 92.6 196.08 92.6 196.08 85.95 196.03 79.63 196.1 73.32 196.14 70.46 195.2 66.51 199.65 66.43 204.55 66.34 203.41 70.59 203.48 73.54 203.59 79.68 203.5 85.83 203.5 92.47ZM103.91 246.73C103.91 235.38 104.23 224.41 103.79 213.47 103.53 207.01 98.32 201.6 91.86 201.34 79.9 200.86 67.9 200.89 55.94 201.37 49.89 201.61 44.62 206.74 44.35 212.69 43.84 223.93 44.2 235.21 44.2 246.73 47.12 246.73 49.65 246.73 52.66 246.73 52.66 239.54 52.64 232.74 52.67 225.95 52.68 223.39 52.72 220.53 56.22 220.47 59.99 220.41 60.1 223.32 60.1 226.13 60.08 232.92 60.09 239.71 60.09 246.71 69.59 246.71 78.62 246.71 87.94 246.71 87.94 239.64 87.94 232.99 87.94 226.34 87.94 223.61 87.8 220.52 91.58 220.46 95.41 220.39 95.31 223.51 95.31 226.23 95.33 233 95.32 239.77 95.32 246.73 98.52 246.73 101.07 246.73 103.91 246.73ZM196.07 246.8C196.07 239.2 195.86 232.04 196.23 224.91 196.31 223.35 198.47 221.9 199.67 220.4 200.92 221.66 202.54 222.74 203.3 224.25 203.91 225.45 203.49 227.19 203.5 228.68 203.51 234.63 203.5 240.57 203.5 246.72 206.68 246.72 209.22 246.72 212.15 246.72 212.15 236.19 212.24 226.05 212.12 215.92 212.02 207.18 206.76 201.33 198 201.01 187.52 200.62 177.01 200.63 166.53 200.98 157.55 201.28 152.25 207.15 152.12 216.18 152.01 224.17 152.09 232.16 152.09 240.16 152.09 247.96 152.6 248.34 160.82 246.24 160.82 239.58 160.81 232.79 160.83 226 160.84 223.44 160.81 220.58 164.3 220.47 168.1 220.35 168.21 223.28 168.2 226.08 168.19 232.87 168.2 239.66 168.2 246.79 177.58 246.8 186.48 246.8 196.07 246.8ZM83.1 84.3C83.1 80.42 82.65 76.87 83.25 73.51 83.69 71.05 85.05 67.52 86.86 66.88 88.67 66.24 92.07 68.04 93.84 69.73 97.32 73.06 100.16 77.06 104 81.67 104 73.67 104.23 67.02 103.94 60.39 103.64 53.38 98.84 47.56 91.91 47.22 79.96 46.64 67.94 46.68 55.98 47.24 49.61 47.54 44.53 52.84 44.29 59.04 43.85 70.14 44.17 81.27 44.17 92.59 47.07 92.59 49.62 92.59 52.68 92.59 52.68 85.44 52.66 78.64 52.69 71.85 52.7 69.29 52.72 66.44 56.25 66.38 60.06 66.31 60.13 69.23 60.12 72.03 60.11 78.81 60.12 85.6 60.12 93.91 64.14 92.77 68.64 92.87 70.24 90.76 73.49 86.44 77.03 84.14 83.1 84.3ZM145.86 161.88C146.07 160.13 146.17 159.64 146.18 159.14 146.42 149.75 146.41 149.69 155.96 148.18 159.17 147.67 159.94 145.69 159.92 142.87 159.87 136.87 159.84 130.88 159.93 124.88 159.99 121.14 158.46 119.42 154.58 119.44 138.92 119.53 123.26 119.54 107.6 119.43 103.4 119.4 102.02 121.34 102.12 125.25 102.26 130.91 102.31 136.58 102.11 142.24 101.96 146.5 103.64 148.35 107.96 148.24 114.45 148.08 120.96 148.4 127.45 148.14 132.39 147.94 136.15 149.43 139.01 153.55 140.86 156.22 143.14 158.6 145.86 161.88ZM134.8 112.06C134.8 106.59 134.66 102.09 134.84 97.61 135.01 93.24 133 91.68 128.81 91.78 121.98 91.94 115.14 91.73 108.3 91.84 104.13 91.91 100.92 90.43 98.43 87.06 96.32 84.22 93.96 81.56 91.29 78.32 90.97 79.81 90.79 80.29 90.77 80.77 90.31 90.4 90.28 90.22 81.07 92.05 79.51 92.36 77.39 94.93 77.27 96.59 76.82 102.89 77.13 109.25 77.07 115.58 77.04 118.9 78.49 120.52 81.88 120.45 85.38 120.38 88.89 120.56 92.38 120.36 93.46 120.3 95.01 119.58 95.44 118.71 98.13 113.24 102.71 111.93 108.3 112.03 116.92 112.18 125.54 112.06 134.8 112.06ZM89.92 23.23C89.86 14.57 82.57 7.39 73.92 7.44 65.23 7.49 58.07 14.73 58.11 23.4 58.16 32.05 65.46 39.29 74.09 39.23 82.69 39.19 89.98 31.81 89.92 23.23ZM166.23 23.18C166.13 31.75 173.4 39.15 182.01 39.24 190.63 39.33 197.96 32.11 198.04 23.46 198.12 14.79 190.97 7.53 182.29 7.44 173.64 7.36 166.33 14.52 166.23 23.18ZM73.85 161.54C65.19 161.64 58.01 168.96 58.11 177.6 58.2 186.26 65.51 193.44 74.15 193.35 82.78 193.26 90.02 185.9 89.92 177.3 89.82 168.68 82.45 161.44 73.85 161.54ZM198.04 177.49C198.07 168.84 190.84 161.57 182.19 161.54 173.59 161.51 166.25 168.8 166.23 177.41 166.21 186.02 173.48 193.33 182.11 193.35 190.77 193.37 198.02 186.16 198.04 177.49ZM36.19 219.14C26.44 219.14 17.21 219.14 7.58 219.14 7.58 221.24 7.16 223.34 7.71 225.15 8.2 226.76 9.72 229.23 10.87 229.28 19.28 229.63 27.7 229.47 36.2 229.47 36.19 225.79 36.19 222.82 36.19 219.14ZM248.56 219.24C238.5 219.24 229.4 219.24 220.2 219.24 220.2 222.89 220.2 226.08 220.2 229.55 228.44 229.55 236.25 229.52 244.06 229.57 246.93 229.59 248.45 228.27 248.55 225.43 248.62 223.31 248.56 221.2 248.56 219.24Z" fill="#FFFFFF"/></g></svg>