<svg width="255.96" height="242.25" viewBox="0 0 255.96 242.25" xmlns="http://www.w3.org/2000/svg" xmlns:xlink="http://www.w3.org/1999/xlink" xml:space="preserve" overflow="visible"><defs></defs><g><path d="M19.39 224.38C19.39 207.27 19.39 190.36 19.39 172.88 17.41 172.78 15.48 172.76 13.57 172.57 9.43 172.14 7.21 173.51 7.61 178.1 7.84 180.76 7.12 183.43 3.77 183.37 0.43 183.31 0.12 180.7 0.06 177.99-0.13 169.11 3.72 165.05 12.57 164.99 14.72 164.97 16.88 164.99 18.92 164.99 22.64 155.84 23.94 154.99 33.82 154.98 36.15 154.98 38.49 154.98 40.82 154.98 48.84 155 51.07 156.52 54.01 164.33 55.15 163.64 56.61 163.26 57.21 162.33 61.65 155.4 66.97 148.84 66.92 139.92 66.84 127.09 66.9 114.26 66.9 101.42 66.9 91.38 68.14 90.12 77.98 90.12 100.48 90.12 122.98 90.12 145.47 90.12 147.29 90.12 149.1 90.12 150.84 90.12 148.2 83.45 144.87 77.23 143.26 70.59 134.26 33.51 163.79-1.81 201.91 0.08 205.01 0.23 209.13-0.03 208.78 4.52 208.46 8.68 204.61 7.92 201.64 7.79 172.53 6.54 148.77 29.27 149.21 57.94 149.58 82.29 167.56 102.79 191.93 106.63 214.75 110.23 238.82 95.35 246.09 73.16 253.76 49.77 243.49 24.44 221.81 13.11 219.07 11.68 214.3 10.87 216.72 6.33 219.04 1.97 222.69 5.09 225.37 6.54 245.47 17.42 255.98 34.51 255.94 57.24 255.9 79.92 245.59 97.2 225.35 107.88 221.62 109.85 220.57 111.94 220.59 115.87 220.72 152.2 220.67 188.53 220.66 224.86 220.66 234.18 218.88 235.96 209.58 235.96 159.92 235.95 110.26 235.95 60.59 235.91 56.56 235.91 52.39 234.85 49.97 239.74 49.39 240.91 47.19 241.84 45.69 241.9 39.7 242.15 33.61 242.63 27.75 241.74 25.05 241.33 21.59 238.41 20.64 235.84 19.4 232.47 17.84 231.87 14.9 232.11 13.41 232.24 11.9 232.17 10.4 232.1 4.39 231.8 0.29 228.01 0.14 222.05-0.07 213.39-0.12 204.71 0.24 196.06 0.31 194.39 2.63 192.82 3.91 191.2 5.15 192.88 7.35 194.51 7.46 196.26 7.88 203.07 7.64 209.92 7.65 216.75 7.66 224.84 7.7 224.89 15.65 224.72 16.8 224.69 17.93 224.51 19.39 224.38ZM191.45 114.64C191.45 122.89 191.65 131.19 191.29 139.46 191.21 141.22 189.28 144.12 187.85 144.35 184.7 144.86 183.99 142.13 184.01 139.32 184.06 131.82 183.86 124.32 184.1 116.83 184.21 113.64 183.02 112.42 180.21 111.05 173.84 107.94 167.5 104.54 161.78 100.39 158.24 97.82 155.14 97.47 151.09 98.31 151.09 108.92 151.26 119.24 150.96 129.54 150.89 131.89 149.74 135.56 148.14 136.19 146.14 136.97 142.81 135.78 140.68 134.45 136.63 131.93 133.03 128.7 129.15 125.7 124.78 129.08 120.85 132.47 116.56 135.27 114.86 136.38 111.85 137.14 110.3 136.36 108.72 135.56 107.96 132.74 107.29 130.65 106.85 129.29 107.2 127.68 107.2 126.18 107.2 116.9 107.2 107.62 107.2 98.28 95.97 98.28 85.29 98.28 74.52 98.28 74.52 111.35 74.52 123.97 74.52 136.73 81.76 137.13 86.92 141.05 87.78 147.6 88.52 153.27 86.52 159.29 85.67 165.62 86.4 165.62 88.17 165.62 89.94 165.62 103.1 165.62 116.27 165.52 129.43 165.66 136.43 165.73 141.13 169.54 141.97 175.47 142.22 177.21 142.01 179.02 142.01 180.97 149.06 181.18 154.61 183.26 156.46 190.46 158.15 197.03 154.64 201.18 149.43 204.15 151.23 214.41 146.56 220.01 136.34 220.11 132.73 220.15 129.12 220.12 125.58 220.12 125.58 223.19 125.58 225.59 125.58 227.94 145.1 227.94 164.34 227.94 184.03 227.94 184.03 225.79 184.03 223.99 184.03 222.19 184.03 201.53 184.03 180.87 184.03 160.21 184.03 159.04 183.63 157.64 184.14 156.76 185.08 155.11 186.54 153.77 187.79 152.3 189.01 153.81 190.5 155.19 191.35 156.88 191.89 157.95 191.48 159.5 191.48 160.83 191.48 181.32 191.48 201.82 191.48 222.31 191.48 224.1 191.48 225.89 191.48 227.95 198.95 227.95 205.82 227.95 212.69 227.95 212.69 189.45 212.69 151.28 212.69 113.44 205.66 113.85 199.04 114.22 191.45 114.64ZM75.91 144.16C73.03 149.83 70.41 154.96 67.8 160.11 65.18 165.29 61.78 169.6 56.17 171.96 54.95 172.47 53.64 174.54 53.63 175.91 53.45 191.91 53.56 207.91 53.47 223.9 53.45 226.83 54.39 228.13 57.45 228.13 75.95 228.12 94.44 228.31 112.94 228.11 114.63 228.09 116.29 225.76 117.97 224.5 116.27 223.06 114.72 220.65 112.85 220.37 108.61 219.74 104.21 220.14 99.88 220.14 96.99 220.14 93.55 220.37 93.65 216.34 93.75 212.33 97.27 212.75 100.1 212.74 112.1 212.72 124.1 212.74 136.1 212.71 139.03 212.7 142.19 212.55 142.22 208.57 142.25 204.48 139.01 204.53 136.12 204.52 126.12 204.49 116.12 204.52 106.12 204.49 104.13 204.48 101.99 204.73 100.19 204.1 98.94 203.66 97.38 201.9 97.38 200.74 97.38 199.53 98.89 197.98 100.14 197.23 101.14 196.63 102.73 196.96 104.06 196.96 117.23 196.95 130.39 196.95 143.56 196.95 146.37 196.95 149.27 196.74 149.1 192.94 148.95 189.44 146.29 188.86 143.38 188.88 139.05 188.91 134.71 188.89 130.38 188.88 121.05 188.88 111.71 189.06 102.39 188.7 100.7 188.63 99.11 186.31 97.47 185.03 99.11 183.75 100.62 182.21 102.45 181.28 103.51 180.74 105.07 181.17 106.4 181.17 114.07 181.17 121.74 181.38 129.39 180.99 131.12 180.9 133.85 178.94 134.18 177.43 134.83 174.43 132.29 173.19 129.45 173.09 128.28 173.05 127.12 173.07 125.95 173.07 112.12 173.07 98.29 173.14 84.45 173.05 77.25 173 74.24 168.13 77.21 161.64 78.18 159.52 79.38 157.51 80.27 155.36 82.13 150.85 80.97 147.31 75.91 144.16ZM46.04 199.01C46.04 191.2 46.04 183.38 46.04 175.57 46.04 162.36 46.04 162.51 32.88 162.45 28.64 162.43 27.04 163.6 27.1 168.09 27.33 185.88 27.19 203.67 27.19 221.45 27.19 234.97 27.19 234.85 40.61 234.84 44.64 234.84 46.23 233.68 46.12 229.43 45.86 219.3 46.04 209.15 46.04 199.01ZM143.2 98.18C133.64 98.18 124.46 98.18 115.25 98.18 115.25 107.7 115.25 116.86 115.25 126.89 118.58 124.29 121.4 122.32 123.96 120.04 127.61 116.79 130.96 117.02 134.54 120.15 137.09 122.39 139.89 124.34 143.2 126.91 143.2 116.83 143.2 107.76 143.2 98.18Z" fill="#FFFFFF"/><path d="M189.12 73.5C199.96 61.33 210.31 49.61 220.81 38.02 222.94 35.66 225.14 30.99 229.06 34.73 232.59 38.1 228.42 40.68 226.4 42.98 216.4 54.37 206.27 65.66 196.17 76.96 191.07 82.67 187.16 82.66 182.07 76.96 177.85 72.24 173.67 67.49 169.47 62.75 167.64 60.68 166.38 58.08 169.17 56.43 170.45 55.67 173.73 56.55 174.98 57.8 179.78 62.61 184.13 67.87 189.12 73.5Z" fill="#FFFFFF"/></g></svg>