<svg width="223.95" height="255.99" viewBox="0 0 223.95 255.99" xmlns="http://www.w3.org/2000/svg" xmlns:xlink="http://www.w3.org/1999/xlink" xml:space="preserve" overflow="visible"><defs></defs><g><path d="M175.91 128.14C175.91 137.63 175.85 147.12 175.93 156.61 175.98 162.13 173.71 166.16 168.92 168.91 152.19 178.52 135.48 188.17 118.79 197.85 114.17 200.53 109.73 200.51 105.11 197.82 88.43 188.12 71.71 178.49 54.98 168.87 50.19 166.11 47.98 162.08 48 156.56 48.07 137.41 48.05 118.26 48.01 99.12 48 93.8 50.2 89.86 54.8 87.21 71.66 77.5 88.53 67.79 105.37 58.03 109.83 55.45 114.15 55.47 118.6 58.04 135.44 67.79 152.31 77.49 169.17 87.22 173.76 89.87 175.95 93.85 175.92 99.17 175.87 108.83 175.91 118.49 175.91 128.14ZM115.82 190.87C133.2 180.83 149.5 171.51 165.63 161.9 167.07 161.05 168.12 158.35 168.13 156.49 168.31 137.5 168.34 118.5 168.09 99.52 168.06 97.49 166.48 94.71 164.77 93.6 158.36 89.43 151.67 85.68 144.91 82.09 143.48 81.33 140.94 81.22 139.58 81.99 123.06 91.31 106.66 100.84 89.62 110.68 94.51 113.53 99.23 115.71 103.27 118.79 109.24 123.35 114.25 123.17 120.61 118.95 130.85 112.15 141.75 106.33 152.57 100.44 154 99.66 156.54 100.93 158.56 101.25 157.87 103.06 157.39 105 156.4 106.62 155.87 107.49 154.47 107.83 153.46 108.42 142.65 114.66 131.93 121.06 120.98 127.05 117.18 129.13 115.51 131.36 115.7 135.92 116.12 145.9 115.83 155.91 115.83 165.9 115.82 173.83 115.82 181.78 115.82 190.87ZM107.4 190.06C107.73 189.48 108.01 189.21 108.01 188.95 108.06 170.15 108.1 151.36 108.09 132.56 108.09 131.64 107.89 130.24 107.29 129.88 100.44 125.73 93.5 121.74 85.92 117.32 85.92 122.48 86.32 126.52 85.75 130.43 85.46 132.37 83.38 134.05 82.11 135.85 80.84 134.04 78.68 132.32 78.47 130.39 77.93 125.63 78.39 120.76 78.22 115.94 78.17 114.62 77.66 112.71 76.71 112.12 70.1 108.05 63.33 104.27 56.24 100.18 55.98 101.38 55.73 101.98 55.73 102.57 55.71 120.7 55.58 138.84 55.89 156.97 55.93 159.01 58.08 161.76 60 162.91 74.55 171.6 89.29 179.99 103.98 188.45 105.08 189.07 106.27 189.53 107.4 190.06ZM59.41 93.3C66.36 97.31 72.5 100.65 78.41 104.34 81.03 105.97 82.97 105.93 85.61 104.36 97.62 97.22 109.77 90.32 121.87 83.34 125.85 81.04 129.83 78.74 134.58 75.99 127.24 71.77 120.77 67.78 114.02 64.37 112.53 63.62 109.76 64.4 108.03 65.32 101.72 68.68 95.61 72.41 89.42 75.99 79.65 81.61 69.88 87.25 59.41 93.3Z" fill="#FFFFFF"/><path d="M223.94 71.96C223.9 80.62 216.57 87.84 207.97 87.71 199.5 87.57 192.48 80.53 192.38 72.06 192.28 63.39 199.46 56.11 208.12 56.09 216.79 56.06 223.98 63.28 223.94 71.96ZM216.31 72.09C216.41 67.46 212.96 63.84 208.35 63.75 203.71 63.66 200.07 67.11 199.97 71.69 199.87 76.26 203.38 79.93 207.95 80.05 212.55 80.16 216.21 76.68 216.31 72.09Z" fill="#FFFFFF"/><path d="M208.23 168.29C216.89 168.34 224.04 175.62 223.94 184.29 223.84 192.96 216.5 200.1 207.86 199.91 199.4 199.73 192.44 192.66 192.38 184.17 192.33 175.55 199.62 168.24 208.23 168.29ZM208.32 175.94C203.72 175.87 200.06 179.37 199.97 183.93 199.87 188.53 203.35 192.14 207.98 192.23 212.63 192.33 216.22 188.89 216.31 184.27 216.4 179.67 212.9 176.02 208.32 175.94Z" fill="#FFFFFF"/><path d="M31.55 72.06C31.44 80.72 24.03 87.93 15.46 87.71 6.78 87.48-0.23 80.12 0.01 71.46 0.24 62.99 7.37 56.06 15.83 56.08 24.49 56.1 31.66 63.39 31.55 72.06ZM23.98 72.07C24.08 67.46 20.61 63.86 15.97 63.76 11.32 63.66 7.73 67.09 7.64 71.71 7.55 76.31 11.05 79.97 15.62 80.05 20.2 80.13 23.88 76.63 23.98 72.07Z" fill="#FFFFFF"/><path d="M15.73 199.92C7.07 199.89-0.09 192.61 0 183.94 0.09 175.27 7.47 168.09 16.06 168.29 24.56 168.49 31.51 175.56 31.55 184.03 31.6 192.7 24.37 199.95 15.73 199.92ZM15.92 192.23C20.55 192.16 24.05 188.56 23.97 183.97 23.9 179.41 20.25 175.89 15.66 175.94 11.08 175.99 7.57 179.62 7.64 184.23 7.71 188.86 11.27 192.31 15.92 192.23Z" fill="#FFFFFF"/><path d="M111.29 31.5C102.58 31.08 95.62 23.46 96.17 14.96 96.74 6.21 104.22-0.46 112.91 0.03 121.33 0.5 128.17 7.99 127.8 16.33 127.41 25.03 119.92 31.92 111.29 31.5ZM111.87 7.61C107.26 7.67 103.79 11.25 103.85 15.89 103.91 20.5 107.51 24.04 112.09 23.98 116.66 23.92 120.16 20.3 120.12 15.68 120.06 11.08 116.46 7.55 111.87 7.61Z" fill="#FFFFFF"/><path d="M127.8 240.22C127.8 248.87 120.54 256.05 111.86 256 103.2 255.95 95.99 248.61 96.14 240 96.29 231.53 103.33 224.56 111.83 224.48 120.5 224.38 127.81 231.59 127.8 240.22ZM120.1 240.01C120 235.41 116.36 231.91 111.78 232.01 107.21 232.11 103.75 235.76 103.84 240.39 103.92 244.99 107.56 248.48 112.17 248.38 116.77 248.28 120.2 244.66 120.1 240.01Z" fill="#FFFFFF"/><path d="M11 128.04C11 119.24 10.79 110.42 11.17 101.64 11.25 99.77 13.26 96.7 14.77 96.44 17.9 95.91 18.58 98.85 18.59 101.55 18.6 119.16 18.6 136.76 18.59 154.37 18.59 157.05 17.99 160.02 14.85 159.56 13.35 159.34 11.26 156.29 11.17 154.45 10.78 145.66 11 136.84 11 128.04Z" fill="#FFFFFF"/><path d="M205.36 127.5C205.36 119.03 205.36 110.56 205.36 102.09 205.36 99.3 205.59 96.26 209.19 96.29 212.74 96.31 212.98 99.25 212.98 102.1 212.95 119.38 212.95 136.65 212.98 153.93 212.99 156.78 212.74 159.72 209.19 159.74 205.59 159.76 205.37 156.72 205.37 153.93 205.35 145.1 205.36 136.3 205.36 127.5Z" fill="#FFFFFF"/><path d="M37.79 62.99C37.3 61.52 36.55 60.09 36.39 58.58 36.27 57.4 36.6 55.97 37.24 54.98 37.81 54.08 39.04 53.56 40.04 52.99 54.57 44.59 69.1 36.2 83.64 27.81 85.97 26.46 88.57 24.58 90.58 27.74 92.72 31.09 90.06 32.78 87.45 34.28 72.9 42.65 58.38 51.06 43.84 59.43 42.57 60.16 41.2 60.71 39.88 61.35 39.19 61.9 38.49 62.45 37.79 62.99Z" fill="#FFFFFF"/><path d="M39.64 194.53C41.26 195.28 42.34 195.68 43.33 196.25 58.16 204.79 73.02 213.28 87.73 222.03 89.34 222.99 91.07 225.64 90.87 227.28 90.53 230.08 87.95 230.61 85.46 229.18 69.76 220.15 54.05 211.14 38.46 201.93 37.27 201.23 36.34 198.93 36.48 197.49 36.58 196.39 38.56 195.47 39.64 194.53Z" fill="#FFFFFF"/><path d="M135.74 25.64C137.4 26.4 138.64 26.85 139.77 27.5 154.61 36.03 169.44 44.57 184.25 53.15 186.6 54.51 189.23 56.05 187.16 59.34 185.36 62.2 182.92 61.09 180.63 59.77 165.67 51.13 150.65 42.56 135.8 33.74 134.33 32.87 133.41 30.51 133.02 28.67 132.85 27.9 134.74 26.69 135.74 25.64Z" fill="#FFFFFF"/><path d="M187.89 199.29C187.22 200.02 186.37 201.53 185.07 202.28 169.72 211.25 154.35 220.19 138.84 228.87 137.51 229.62 135.11 228.47 133.21 228.2 133.91 226.27 134.04 223.38 135.4 222.56 150.66 213.45 166.09 204.61 181.54 195.81 184.71 194.01 187.8 195.5 187.89 199.29Z" fill="#FFFFFF"/></g></svg>