<svg width="256.07" height="256.16" viewBox="0 0 256.07 256.16" xmlns="http://www.w3.org/2000/svg" xmlns:xlink="http://www.w3.org/1999/xlink" xml:space="preserve" overflow="visible"><defs></defs><g><path d="M27.91 243.34C15.47 241.56 15.47 241.56 13.62 229.12 0 226.76 0 226.76 0 212.51 0 145.81 0 79.11 0 12.41 0 2.52 2.51 0 12.39 0 58.07 0 103.74 0 149.42 0 162.3 0 163.24 0.83 164.56 13.12 168.21 14.18 172.59 14.29 175.1 16.51 177.57 18.7 178.15 23.04 178.78 26.78 179.05 26.96 179.31 27.28 179.59 27.32 191.65 28.67 192.57 29.7 192.57 41.9 192.57 46.71 192.57 51.52 192.57 56.21 198.76 57.2 204.58 57.66 210.15 59.1 252.97 70.14 270.36 122.65 242.68 157.14 241.49 158.62 239.84 160.01 238.11 160.62 237.29 160.91 235.09 159.46 234.77 158.41 234.38 157.14 234.97 155.25 235.72 153.99 239.07 148.35 242.64 142.84 246.54 136.62 231.32 132.56 217.43 129.17 203.76 125.04 197.64 123.19 193.63 123.98 189.14 128.9 179.48 139.46 169.01 149.28 158.55 159.73 167.89 167.96 178.52 172.1 190.44 173.02 200.28 173.78 209.67 171.87 218.52 167.43 221.12 166.12 224.02 164.45 225.73 168.18 227.43 171.9 224.23 173.36 221.58 174.2 214.65 176.41 207.63 178.37 200.59 180.22 198.23 180.84 195.69 180.8 192.59 181.12 192.59 190.24 192.1 199.23 192.73 208.14 193.3 216.11 190.97 221.93 184.92 227.3 175.83 235.37 167.68 244.48 158.82 252.82 156.89 254.63 153.68 256 151.05 256.01 114.54 256.21 78.03 256.15 41.53 256.15 30.76 256.15 28.78 254.34 27.91 243.34ZM184.85 180.4C149.46 173.57 132.75 145.01 132.28 120.2 132.03 107.02 135.55 94.82 143.06 83.91 153.2 69.19 167.38 60.64 184.61 57.5 184.61 49.82 184.61 42.59 184.61 35.38 134.91 35.38 85.66 35.38 36.2 35.38 36.2 106.46 36.2 177.21 36.2 248.29 74.25 248.29 111.98 248.29 149.57 248.29 149.86 247.74 150.14 247.45 150.14 247.16 150.21 240.49 150.29 233.83 150.3 227.16 150.33 216.09 152.48 213.89 163.34 213.88 170.45 213.88 177.56 213.88 184.85 213.88 184.85 202.28 184.85 191.32 184.85 180.4ZM14.08 220.6C14.08 218.54 14.08 216.57 14.08 214.6 14.08 152.09 14.08 89.58 14.08 27.07 14.08 25.4 13.95 23.71 14.18 22.08 14.74 18.05 17.03 14.72 21.01 14.5 30.48 13.99 39.98 14.14 49.47 14.35 50.54 14.37 52.48 16.57 52.38 17.61 52.25 19.02 50.79 20.84 49.44 21.45 47.9 22.14 45.85 21.74 44.02 21.74 36.75 21.76 29.49 21.75 22.1 21.75 22.1 93.25 22.1 163.99 22.1 234.92 24.2 234.92 25.94 234.92 28.17 234.92 28.17 232.71 28.17 230.75 28.17 228.79 28.17 165.95 28.17 103.1 28.17 40.26 28.17 30.09 30.67 27.58 40.86 27.58 82.02 27.57 123.18 27.58 164.35 27.58 166.45 27.58 168.55 27.58 171.04 27.58 170.87 25.27 170.76 23.71 170.62 21.76 168.18 21.76 166.2 21.76 164.23 21.76 134.23 21.76 104.24 21.76 74.24 21.75 72.58 21.75 70.71 22.04 69.33 21.38 68.09 20.79 66.64 19.06 66.66 17.85 66.68 16.63 68.17 15 69.42 14.35 70.62 13.73 72.35 14.1 73.85 14.09 99.51 14.08 125.18 14.08 150.84 14.08 152.76 14.08 154.69 14.08 156.34 14.08 158.07 8.27 155.56 7.46 151.15 7.47 105.15 7.58 59.16 7.61 13.16 7.42 8.32 7.4 7.45 9.09 7.46 13.44 7.58 80.78 7.57 148.13 7.46 215.47 7.45 220 8.44 222.27 14.08 220.6ZM153.62 154.62C157.74 150.3 161.27 145.78 165.59 142.2 184.63 126.41 197.81 106.73 206.02 83.5 207.88 78.24 210.48 73.25 212.74 68.15 192.01 58.87 164.3 67.31 150.17 86.85 135.46 107.14 136.63 136.02 153.62 154.62ZM219.73 71.13C212.95 86.22 206.32 101 199.47 116.25 214.38 120.24 228.62 124.06 242.86 127.85 244.26 128.22 245.7 128.44 247.09 128.73 253.17 108.38 240.43 81.35 219.73 71.13ZM158.21 240.87C164.68 234.5 171.31 227.95 177.69 221.67 171.64 221.67 165.01 221.67 158.21 221.67 158.21 228.62 158.21 235.15 158.21 240.87Z" fill="#FFFFFF"/><path d="M63.6 215.51C63.6 207.52 63.74 199.53 63.55 191.54 63.44 186.97 65.4 185.19 69.83 185.39 73.78 185.57 77.73 185.43 82.25 185.43 82.25 180.59 82.26 176.31 82.25 172.02 82.21 157.05 81.43 159.11 95.5 158.99 98.17 158.97 100.84 159.09 103.5 158.97 107.15 158.8 108.68 160.6 108.68 164.06 108.67 167.85 108.68 171.63 108.68 175.97 111.76 175.97 114.21 175.98 116.67 175.97 127.9 175.94 127.41 175.06 127.38 186.93 127.35 196.42 127.37 205.91 127.37 215.65 128.63 215.95 129.97 215.89 130.72 216.52 131.88 217.49 133.55 219.13 133.34 220.13 133.05 221.53 131.37 222.85 129.99 223.72 129.14 224.25 127.72 223.91 126.55 223.91 105.89 223.92 85.23 223.91 64.57 223.91 64.4 223.91 64.24 223.91 64.07 223.91 61.19 223.91 57.62 224.1 57.68 220.3 57.71 218.54 60.57 216.82 62.15 215.09 62.62 215.23 63.11 215.37 63.6 215.51ZM100.74 216.03C100.74 199.29 100.74 183.06 100.74 166.73 97.03 166.73 93.64 166.73 90.25 166.73 90.25 183.35 90.25 199.59 90.25 216.03 93.85 216.03 97.12 216.03 100.74 216.03ZM119.53 215.97C119.53 205.01 119.53 194.33 119.53 183.64 115.84 183.64 112.58 183.64 109.18 183.64 109.18 194.63 109.18 205.31 109.18 215.97 112.89 215.97 116.16 215.97 119.53 215.97ZM71.43 193.27C71.43 201.23 71.43 208.61 71.43 215.83 75.19 215.83 78.58 215.83 81.83 215.83 81.83 208.06 81.83 200.69 81.83 193.27 78.17 193.27 74.91 193.27 71.43 193.27Z" fill="#FFFFFF"/><path d="M98.03 69.27C86.36 69.27 74.7 69.26 63.03 69.28 60.24 69.29 57.2 69.27 57.25 65.54 57.3 61.83 60.35 61.89 63.14 61.9 86.14 61.92 109.14 61.92 132.14 61.9 134.92 61.9 137.94 61.86 137.9 65.64 137.86 69.45 134.76 69.28 132.03 69.27 120.7 69.27 109.37 69.27 98.03 69.27Z" fill="#FFFFFF"/><path d="M88.87 96.95C80.22 96.95 71.58 96.93 62.93 96.96 60.06 96.97 57.2 96.65 57.26 93.03 57.32 89.4 60.3 89.25 63.1 89.25 80.39 89.26 97.69 89.26 114.98 89.25 117.74 89.25 120.8 89.29 120.88 92.94 120.97 96.97 117.75 96.95 114.81 96.94 106.16 96.94 97.51 96.95 88.87 96.95Z" fill="#FFFFFF"/><path d="M85.12 116.96C92.62 116.96 100.12 116.99 107.62 116.94 110.35 116.92 112.93 117.27 112.91 120.67 112.9 124.11 110.21 124.34 107.55 124.34 92.55 124.33 77.55 124.32 62.55 124.35 59.83 124.35 57.19 123.98 57.23 120.61 57.27 117.28 59.87 116.92 62.61 116.94 70.12 117 77.62 116.96 85.12 116.96Z" fill="#FFFFFF"/></g></svg>