<svg width="236.09" height="256.08" viewBox="0 0 236.09 256.08" xmlns="http://www.w3.org/2000/svg" xmlns:xlink="http://www.w3.org/1999/xlink" xml:space="preserve" overflow="visible"><defs></defs><g><path d="M124.56 57.11C122.31 62.32 120.9 66.25 125.03 70.54 130.06 75.76 128.29 84.3 122.3 88.45 116.24 92.64 107.77 90.68 104.12 84.23 100.56 77.94 103 70 109.5 66.73 115.07 63.93 115.07 63.93 114.89 56.95 113.44 57.33 112.08 57.57 110.81 58.05 96.03 63.67 81.19 69.14 66.56 75.14 63.68 76.32 60.57 79.12 59.39 81.93 42.41 122.27 25.72 162.73 9 203.18 6.09 210.21 7.51 213.38 14.69 216.4 18.06 217.82 21.46 219.19 24.82 220.64 27.38 221.74 30.84 222.61 29.3 226.43 27.62 230.6 24.45 228.58 21.71 227.46 18.17 226.01 14.62 224.57 11.09 223.08 0.83 218.76-2.42 211.18 1.82 200.9 15.33 168.13 28.93 135.39 42.5 102.64 45.94 94.34 48.95 85.81 53.06 77.85 54.96 74.16 58.5 70.27 62.23 68.76 79.48 61.75 97.07 55.58 114.48 48.94 115.63 48.5 116.72 46.76 117.01 45.44 118.81 37.15 119.79 28.63 122.23 20.55 123.86 15.14 126.86 9.85 130.34 5.35 134.61-0.18 140.91-1.21 146.52 1.24 152.11 3.69 155.72 9.67 154.62 16.45 153.8 21.47 152.34 26.57 150.12 31.13 146.06 39.5 141.22 47.49 136.46 56.08 145.77 59.05 155.15 62.3 164.68 64.98 171.47 66.89 176.08 70.64 178.72 77.23 180.89 82.63 183.61 87.8 186.07 93.08 187.22 95.56 188.59 98.37 185.24 99.98 181.98 101.55 180.48 99.02 179.28 96.43 176.56 90.54 174.04 84.53 170.94 78.84 169.69 76.56 167.45 74.13 165.11 73.26 157.02 70.25 148.69 67.9 139.57 65.02 140.38 67.11 140.87 68.58 141.51 69.98 147.08 82.07 152.48 94.26 158.35 106.2 161.39 112.38 161.48 118.04 158.81 124.36 147.16 151.96 135.82 179.68 124.21 207.3 122.8 210.66 122.77 213.4 124.43 216.69 128.48 224.71 132.11 232.94 135.97 241.06 138.95 247.33 142.55 248.65 148.85 245.71 173.13 234.37 197.4 222.99 221.66 211.6 228.87 208.22 230.12 204.85 226.78 197.72 214.43 171.34 202.07 144.96 189.71 118.59 189.07 117.23 187.97 115.86 187.97 114.5 187.97 112.79 188.89 111.08 189.42 109.37 191.11 109.99 192.95 110.37 194.43 111.31 195.27 111.85 195.53 113.3 196.02 114.35 208.51 141.03 221.01 167.71 233.49 194.4 238.75 205.65 236.08 213.12 224.9 218.37 200.79 229.68 176.67 240.98 152.53 252.25 141.56 257.37 134.05 254.63 128.91 243.75 125.58 236.68 122.24 229.61 118.47 221.62 115.17 229.46 112.18 236.52 109.23 243.61 104.18 255.74 97.09 258.74 85.08 253.77 71.24 248.04 57.42 242.27 43.58 236.53 40.98 235.45 38.28 234.24 39.86 230.8 41.42 227.39 44.2 228.67 46.72 229.72 60.4 235.39 74.09 241.07 87.77 246.74 96.03 250.16 98.86 248.96 102.34 240.55 118.8 200.89 135.22 161.22 151.75 121.59 153.48 117.45 153.59 113.8 151.62 109.67 144.66 95.1 138.1 80.34 131.09 65.8 129.57 62.61 126.78 59.99 124.56 57.11ZM130.31 52.2C135.53 42.16 140.86 32.28 145.77 22.19 146.94 19.79 147.26 16.64 146.95 13.96 146.72 11.97 145.22 9.19 143.58 8.55 141.68 7.8 138.19 8.18 136.85 9.53 134.13 12.26 131.45 15.71 130.44 19.33 127.68 29.16 125.8 39.23 123.55 49.25 126.03 50.34 127.67 51.05 130.31 52.2ZM116.23 72.19C115.42 72.21 114.62 72.22 113.81 72.24 112.56 74.21 110.11 76.36 110.38 78.09 110.68 79.97 113.29 82.45 115.27 82.86 118.2 83.47 120.52 81.01 119.96 77.97 119.58 75.88 117.54 74.11 116.23 72.19Z" fill="#FFFFFF"/><path d="M83.67 115.06C105.67 115.14 124.31 132.7 125.24 154.23 125.36 157.12 125.72 160.49 121.67 160.59 118.02 160.67 118.11 157.53 117.86 154.77 116.15 135.6 100.21 121.34 81.94 122.52 62.44 123.78 48.34 139.33 49.04 158.8 49.57 173.45 60.19 186.45 74.7 190.22 89.38 194.03 104.85 187.83 112.83 175 114.47 172.37 115.55 167.66 119.92 170.42 124.08 173.05 120.7 176.41 119.1 179.03 108.51 196.34 87.01 203.45 68.07 196.04 49.29 188.7 38.31 168.62 42.23 148.78 46.09 129.19 63.53 114.99 83.67 115.06Z" fill="#FFFFFF"/><path d="M74.46 173.96C72.15 171.19 69.68 169.24 68.73 166.72 68.16 165.22 69.97 162.82 70.72 160.82 72.41 161.67 74.08 162.57 75.8 163.35 78.63 164.63 81.46 165.96 84.39 166.95 84.8 167.09 86.35 165.52 86.39 164.69 86.44 163.84 85.47 162.58 84.61 162.12 83.02 161.26 81.16 160.94 79.47 160.25 74.82 158.34 72.4 154.49 72.95 149.65 73.5 144.77 76.41 142.03 81.08 140.71 82.71 140.25 84.1 138.9 85.57 137.91 87.27 136.76 88.94 135.57 90.62 134.39 91.34 136.34 92.13 138.27 92.71 140.26 92.87 140.79 92.39 141.51 92.5 141.14 94.83 144.23 97.22 146.52 98.37 149.32 98.87 150.54 96.85 152.81 95.98 154.6 94.39 153.79 92.82 152.95 91.21 152.17 88.44 150.82 85.69 149.37 82.81 148.29 82.34 148.11 80.72 149.51 80.57 150.35 80.42 151.17 81.24 152.61 82.04 153.06 83.6 153.95 85.47 154.28 87.17 154.94 91.94 156.82 94.4 160.56 94.08 165.34 93.77 169.97 90.61 173.26 85.71 174.67 84.09 175.14 82.73 176.54 81.28 177.57 79.7 178.69 78.17 179.87 76.61 181.03 75.78 179.14 74.83 177.29 74.17 175.34 73.97 174.67 74.51 173.77 74.46 173.96Z" fill="#FFFFFF"/><path d="M184.18 142.28C184.88 143.77 185.58 145.25 186.28 146.74 194 163.14 201.81 179.5 209.28 196.01 209.93 197.44 208.36 199.88 207.82 201.85 206.11 200.95 203.51 200.49 202.83 199.09 194.89 182.8 187.18 166.39 179.55 149.95 177.92 146.43 179.48 143.73 182.62 143.84 183.14 143.32 183.66 142.8 184.18 142.28Z" fill="#FFFFFF"/><path d="M193.74 207.73C192.79 208.79 192.04 210.26 190.89 210.72 189.92 211.11 188.24 210.65 187.32 209.97 186.34 209.24 185.77 207.85 185.21 206.67 177.89 191.19 170.6 175.69 163.3 160.19 162.95 159.44 162.23 158.59 162.37 157.93 162.69 156.31 163.16 153.63 164.02 153.44 165.53 153.11 168.22 153.81 168.94 154.98 171.29 158.78 172.98 162.98 174.9 167.04 180.5 178.92 186.09 190.81 191.66 202.71 192.35 204.19 192.92 205.74 193.74 207.73Z" fill="#FFFFFF"/></g></svg>