<svg width="214.81" height="227.73" viewBox="0 0 214.81 227.73" xmlns="http://www.w3.org/2000/svg" xmlns:xlink="http://www.w3.org/1999/xlink" xml:space="preserve" overflow="visible"><defs></defs><g><path d="M7.35 220.55C9.2 220.63 10.83 220.77 12.46 220.77 59.63 220.78 106.81 220.78 153.98 220.78 166.01 220.78 171.28 215.47 171.28 203.37 171.29 178.36 171.28 153.35 171.29 128.34 171.29 127.01 170.92 125.46 171.46 124.39 172.12 123.09 173.8 121.14 174.62 121.33 176 121.64 177.31 123.25 178.15 124.63 178.67 125.49 178.29 126.91 178.29 128.07 178.29 153.42 178.31 178.76 178.28 204.11 178.26 219 169.58 227.71 154.66 227.72 105.49 227.75 56.31 227.74 7.14 227.73 0.43 227.73 0.03 227.33 0.03 220.66 0 157.79 0 94.93 0.01 32.06 0.01 25.51 0.42 25.13 7.24 25.12 18.36 25.1 29.48 25.12 40.81 25.12 40.96 23.78 41.16 22.98 41.13 22.2 40.65 10.93 42.55 12.61 50.76 12.79 56.4 12.92 60.63 12.06 65.07 7.38 76.33-4.5 96.36-1.47 104.63 12.45 105.96 14.69 107.45 17.36 104.23 18.71 102.98 19.23 99.96 17.69 98.93 16.25 90.16 4 74.83 3.98 66.26 16.14 65 17.93 62.19 19.2 59.91 19.56 56.34 20.13 52.61 19.71 48.55 19.71 48.55 27.78 48.55 35.64 48.55 44.05 59.8 44.05 70.92 43.98 82.04 44.1 85.11 44.13 89.9 42.77 89.89 47.65 89.88 52.72 84.99 50.97 82.02 51.02 70.52 51.2 59.01 50.94 47.52 51.16 42.87 51.25 40.67 49.86 41.08 44.88 41.4 40.91 41.15 36.9 41.15 32.49 29.83 32.49 18.78 32.49 7.36 32.49 7.35 95.12 7.35 157.68 7.35 220.55Z" fill="#FFFFFF"/><path d="M214.66 59.33C214.65 67.67 214.55 76 214.71 84.33 214.77 87.63 213.48 89.47 210.53 90.86 195.02 98.16 179.64 105.72 164.08 112.91 162.15 113.8 159.11 113.85 157.2 112.96 141.66 105.74 126.29 98.14 110.79 90.83 107.58 89.32 106.53 87.19 106.55 83.79 106.66 67.45 106.67 51.12 106.54 34.78 106.51 31.33 107.63 29.35 110.85 27.84 126.07 20.72 141.22 13.43 156.32 6.04 159.46 4.5 162.12 4.47 165.27 6.02 180.21 13.35 195.19 20.61 210.27 27.64 213.87 29.32 215 31.37 214.8 35.33 214.39 43.31 214.67 51.33 214.66 59.33ZM207.52 37.94C193.05 44.9 179.56 51.3 166.19 57.97 165.07 58.53 164.33 60.9 164.31 62.45 164.14 71.61 164.22 80.77 164.22 89.94 164.22 94.82 164.22 99.7 164.22 105.28 178.55 98.35 192.01 91.88 205.41 85.28 206.36 84.81 207.42 83.35 207.43 82.35 207.56 67.87 207.52 53.41 207.52 37.94ZM113.46 37.78C113.46 52.99 113.37 67.14 113.59 81.29 113.61 82.79 115.17 84.9 116.57 85.62 124.4 89.65 132.41 93.34 140.35 97.16 145.68 99.72 151.01 102.3 157.05 105.21 157.05 93.04 156.39 81.71 157.26 70.51 157.95 61.59 155.21 56.81 146.69 53.53 135.6 49.25 125.11 43.39 113.46 37.78ZM118.35 32.13C123.9 34.83 128.61 37.26 133.46 39.38 134.64 39.9 136.48 39.87 137.65 39.32 150.82 33.13 163.91 26.8 177.82 20.12 172.67 17.6 168.34 15.19 163.76 13.4 161.91 12.68 159.24 12.63 157.46 13.43 148.68 17.34 140.06 21.64 131.39 25.81 127.25 27.79 123.12 29.81 118.35 32.13ZM143.52 44.24C149.13 46.96 153.7 49.3 158.41 51.37 159.62 51.9 161.45 52.05 162.6 51.51 175.81 45.29 188.95 38.91 202.98 32.15 197.24 29.4 192.22 26.94 187.13 24.63 186.37 24.29 185.15 24.38 184.37 24.75 171.02 31.06 157.72 37.45 143.52 44.24Z" fill="#FFFFFF"/><path d="M111.57 159.68C100.42 159.68 89.27 159.69 78.12 159.67 75.47 159.66 72.21 160.06 72.02 156.28 71.82 152.31 75.12 152.69 77.77 152.69 100.24 152.68 122.71 152.68 145.18 152.69 147.84 152.69 151.16 152.33 151.06 156.19 150.97 159.88 147.73 159.68 145.03 159.68 133.88 159.68 122.72 159.68 111.57 159.68Z" fill="#FFFFFF"/><path d="M112.25 191.04C100.76 191.04 89.28 191.05 77.79 191.04 75.28 191.04 72.31 191.32 72.26 187.71 72.21 184.25 74.98 184.05 77.61 184.05 100.41 184.05 123.22 184.05 146.02 184.05 148.65 184.05 151.65 184.34 151.11 187.74 150.9 189.07 147.95 190.86 146.2 190.9 134.9 191.18 123.57 191.04 112.25 191.04Z" fill="#FFFFFF"/><path d="M99.6 128C92.12 128 84.65 127.99 77.17 128.01 74.69 128.02 71.86 127.7 72.43 124.61 72.69 123.17 75.53 121.22 77.23 121.19 92.18 120.92 107.13 120.92 122.08 121.19 123.78 121.22 125.45 123.41 127.13 124.6 125.43 125.73 123.77 127.76 122.02 127.84 114.56 128.21 107.07 128 99.6 128Z" fill="#FFFFFF"/><path d="M39.79 153.38C45 147.02 49.81 141.1 54.67 135.22 56.36 133.17 58.14 130.49 61.13 133.1 63.72 135.36 61.95 137.53 60.29 139.55 54.7 146.36 49.19 153.24 43.55 160 40.37 163.81 38.67 163.73 35.8 159.81 33.64 156.86 31.32 153.96 29.68 150.74 28.91 149.23 29.56 146.99 29.57 145.08 31.49 145.73 33.77 145.95 35.24 147.16 36.97 148.56 38 150.83 39.79 153.38Z" fill="#FFFFFF"/><path d="M39.78 118.67C45.09 112.22 50.08 106.21 55.01 100.16 56.7 98.08 58.74 95.94 61.05 98.42 61.96 99.4 61.5 102.87 60.44 104.28 55.05 111.47 49.3 118.4 43.59 125.34 40.53 129.05 38.6 128.96 35.8 125.1 33.65 122.14 31.32 119.24 29.67 116 28.9 114.49 29.57 112.25 29.58 110.35 31.5 111.02 33.78 111.26 35.25 112.47 36.97 113.88 38.01 116.15 39.78 118.67Z" fill="#FFFFFF"/><path d="M39.76 188.09C45.03 181.67 50 175.64 54.94 169.6 56.59 167.58 58.46 165.39 61.11 167.58 63.76 169.76 61.98 172.04 60.33 174.05 54.74 180.88 49.18 187.73 43.55 194.53 40.32 198.43 38.47 198.31 35.49 194.11 33.66 191.53 31.92 188.89 30.1 186.3 28.63 184.2 26.8 181.94 29.68 179.84 32.94 177.46 34.37 180.46 35.92 182.57 37.1 184.17 38.2 185.84 39.76 188.09Z" fill="#FFFFFF"/><path d="M127 56.92C133.13 60.05 138.93 62.89 144.54 66.07 145.19 66.44 145.29 69.09 144.67 70.01 144.06 70.91 141.88 71.68 140.92 71.27 135.58 68.99 130.32 66.45 125.21 63.68 124.29 63.18 123.6 61.06 123.86 59.94 124.11 58.85 125.72 58.07 127 56.92Z" fill="#FFFFFF"/></g></svg>