<svg width="239.94" height="240.04" viewBox="0 0 239.94 240.04" xmlns="http://www.w3.org/2000/svg" xmlns:xlink="http://www.w3.org/1999/xlink" xml:space="preserve" overflow="visible"><defs></defs><g><path d="M111.26 114.7C113.04 121.6 111.73 127.28 105.75 131.15 99.33 135.31 90.84 133.18 87.37 126.21 85.92 123.29 84.32 122.32 81.31 122.63 79.33 122.84 77.3 122.8 75.32 122.64 71.44 122.32 68.86 122.99 66.74 127.19 63.28 134.05 55.96 134.78 46.92 130.12 40.63 134.84 34.16 139.53 27.92 144.51 26.85 145.36 26.18 147.56 26.36 148.99 27.27 155.94 24.52 161.55 18.56 164.11 13.07 166.46 6.42 164.74 2.83 160.03-0.99 155.02-0.86 148.2 3.14 143.39 7.24 138.47 13.58 137.44 19.93 140.29 21.2 140.86 23.44 140.78 24.54 140.01 30.94 135.51 37.14 130.72 43.53 125.93 43.29 123.82 42.87 121.73 42.86 119.64 42.82 113.8 46.92 108.51 52.43 107.05 58.17 105.53 64.52 107.65 66.99 113.01 68.78 116.91 71.28 117.43 74.79 117.16 76.45 117.03 78.14 116.99 79.78 117.17 83.55 117.58 85.95 116.78 87.92 112.8 91.02 106.53 98.96 104.77 105.24 108.45 107.68 109.88 109.22 109.79 111.42 108.23 116.4 104.68 121.59 101.41 125.34 98.91 122.68 89.24 120.35 80.51 117.8 71.84 117.49 70.78 116.13 69.61 115.03 69.29 113.49 68.84 111.65 69.45 110.09 69.04 108.91 68.73 107.97 67.52 106.93 66.71 108.03 65.78 109.03 64.28 110.27 64.03 112.49 63.59 114.85 63.91 117.19 63.91 121.59 32.69 139.19 15.05 170.79 10.33 170.79 8.37 170.45 6.05 170.91 3.89 171.21 2.47 172.65 1.28 173.57-0.01 174.4 1.22 175.68 2.37 175.94 3.71 176.34 5.78 176.05 7.98 176.05 10.21 180.53 11.12 184.78 11.74 188.89 12.86 200.17 15.93 209.46 22.18 216.73 31.29 217.72 32.53 217.55 34.7 217.92 36.44 216.16 35.82 213.81 35.71 212.73 34.49 202.63 23.09 191.01 17.06 176.44 16.22 176.44 21.28 176.44 26.34 176.44 31.86 194.07 34.87 204.94 45.25 207.98 63.59 213.18 63.59 218.25 63.59 224.31 63.59 222.96 58.12 221.54 53.07 220.56 47.94 220.26 46.36 221.15 44.55 221.49 42.84 222.84 43.98 224.96 44.87 225.41 46.3 227.15 51.82 228.36 57.51 229.97 63.91 231.9 63.91 234.55 63.64 237.1 64.04 238.16 64.21 239 65.79 239.94 66.73 239.03 67.52 238.19 68.85 237.19 68.99 234.76 69.32 232.25 69.1 229.6 69.1 225.19 100.42 207.55 118.25 176.03 122.75 176.03 125.16 176.3 127.67 175.91 130.06 175.73 131.16 174.24 132.04 173.35 133.02 172.5 132.01 170.8 130.84 170.95 130 172.14 123.27 168.56 122.01 162.83 121.14 149.83 119.16 139.31 112.29 130.3 102.07 123.92 106.31 117.6 110.5 111.26 114.7ZM138.65 63.65C139.22 61.03 139.45 58.49 140.39 56.24 140.89 55.05 142.61 54.37 143.78 53.46 144.35 54.79 145.14 56.09 145.42 57.48 145.6 58.37 145 59.4 144.8 60.37 142.5 71.44 145.63 80.91 153.96 88.32 162.15 95.61 171.8 97.64 182.34 94.25 193.74 90.58 201.44 80.64 202.31 68.74 203.2 56.65 196.78 45.43 185.98 40.21 175.24 35.01 162.59 36.99 153.37 45 151.96 46.23 148.47 47.46 147.9 46.85 145.32 44.1 148.29 42.1 150.15 41.05 155.57 37.99 161.31 35.52 166.87 32.7 168.28 31.98 170.46 30.91 170.57 29.84 170.99 25.46 170.75 21.02 170.75 16.63 146.08 16.55 122.59 40.12 123.38 63.66 128.32 63.65 133.27 63.65 138.65 63.65ZM123.44 69.45C123.33 95.19 148.12 117.36 170.41 116.32 170.41 111.27 170.41 106.23 170.41 101.05 161.93 99.93 154.77 96.74 148.91 90.88 142.95 84.93 139.96 77.52 138.8 69.45 133.31 69.45 128.37 69.45 123.44 69.45ZM223.27 69.17C219.54 69.17 215.77 69.36 212.03 69.11 208.95 68.9 207.6 69.95 207.12 73.07 206.04 80.2 202.55 86.16 197.46 91.22 191.6 97.05 184.34 99.96 176.34 101.12 176.34 106.53 176.34 111.61 176.34 116.7 200.74 116.46 223.76 93.36 223.27 69.17ZM55.8 127.86C60.1 128 63.87 124.45 64 120.14 64.13 115.81 60.62 112.09 56.28 111.94 51.96 111.8 48.22 115.32 48.08 119.66 47.95 123.99 51.47 127.72 55.8 127.86ZM106.69 119.75C106.59 115.48 102.82 111.86 98.55 111.94 94.2 112.02 90.78 115.63 90.86 120.06 90.94 124.48 94.5 127.96 98.86 127.87 103.13 127.78 106.79 123.98 106.69 119.75ZM13.2 143.95C8.92 144.04 5.28 147.82 5.38 152.07 5.48 156.34 9.26 159.96 13.53 159.88 17.86 159.8 21.3 156.16 21.21 151.74 21.14 147.3 17.59 143.85 13.2 143.95Z" stroke="#FFFFFF" stroke-width="0.999857" fill="#FFFFFF"/><path d="M85.28 154.86C79.71 154.86 74.92 154.86 69.31 154.86 69.31 156.96 69.31 158.87 69.31 160.79 69.31 185.12 69.2 209.45 69.4 233.78 69.44 238.6 67.95 240.35 63.12 239.99 58.15 239.63 53.11 239.68 48.13 239.98 43.87 240.23 42.69 238.5 42.71 234.45 42.85 211.79 42.78 189.12 42.77 166.46 42.77 165.32 42.77 164.18 42.77 161.82 41.27 163.51 40.43 164.33 39.73 165.25 35.82 170.41 31.83 175.51 28.13 180.81 27.2 182.15 26.87 184.14 26.86 185.84 26.77 201.84 26.69 217.84 26.88 233.83 26.93 238.25 25.72 240.29 20.94 239.99 15.46 239.65 9.94 239.82 4.45 239.94 1.25 240.01-0.01 238.7 2.66454e-15 235.49 0.08 218.83 0.08 202.16 2.66454e-15 185.5-0.02 182.17 1.57 181.05 4.6 181.13 6.6 181.18 8.6 181.05 10.6 181.15 18.89 181.58 25.04 178.14 29.37 171.12 31.64 167.44 34.15 163.9 36.56 160.3 41.49 152.97 48.46 149.24 57.22 149.17 73.72 149.05 90.22 149.22 106.71 149.07 110.91 149.03 112.16 150.67 112.12 154.72 111.95 170.72 112.13 186.72 111.94 202.71 111.92 204.42 110.32 206.11 109.45 207.81 108.56 206.14 106.92 204.48 106.9 202.79 106.69 188.79 106.78 174.79 106.78 160.8 106.78 159 106.78 157.19 106.78 155.03 101.42 155.03 96.52 155.03 91.21 155.03 91.21 181.35 91.21 207.71 91.21 234.32 96.34 234.32 101.24 234.32 106.79 234.32 106.79 228.58 106.59 223.12 106.92 217.69 107.01 216.19 108.65 214.79 109.57 213.34 110.4 214.74 111.88 216.11 111.95 217.55 112.22 223.54 111.98 229.55 112.1 235.54 112.16 238.79 110.74 240 107.58 239.92 102.25 239.8 96.89 239.6 91.59 239.97 86.74 240.31 85.17 238.57 85.21 233.74 85.41 213.08 85.29 192.41 85.29 171.75 85.28 166.31 85.28 160.84 85.28 154.86ZM63.75 154.88C60.21 154.88 57.05 154.73 53.92 154.92 49.98 155.16 47.87 156.66 47.93 161.42 48.2 184.25 48.05 207.08 48.07 229.91 48.07 231.35 48.25 232.79 48.36 234.39 53.63 234.39 58.55 234.39 63.75 234.39 63.75 207.87 63.75 181.63 63.75 154.88ZM21.04 185.53C15.64 186.11 10.62 186.65 5.71 187.18 5.71 203.13 5.71 218.66 5.71 234.31 11.01 234.31 15.91 234.31 21.04 234.31 21.04 217.9 21.04 201.82 21.04 185.53Z" stroke="#FFFFFF" stroke-width="0.999857" fill="#FFFFFF"/><path d="M162.66 197.17C152.66 197.17 142.66 197.28 132.66 197.05 131.13 197.01 129.63 195.41 128.12 194.53 129.64 193.65 131.16 192.03 132.68 192.01 152.68 191.84 172.68 191.84 192.68 192.01 194.18 192.02 195.67 193.67 197.17 194.56 195.67 195.43 194.18 197.02 192.66 197.05 182.67 197.28 172.66 197.17 162.66 197.17Z" stroke="#FFFFFF" stroke-width="0.999857" fill="#FFFFFF"/><path d="M152.51 149.15C158.81 149.15 165.13 148.97 171.42 149.27 172.97 149.34 174.44 150.96 175.95 151.87 174.46 152.8 172.99 154.51 171.48 154.54 158.54 154.75 145.6 154.75 132.66 154.54 131.14 154.52 129.64 152.84 128.14 151.93 129.63 151 131.08 149.34 132.61 149.27 139.23 148.98 145.87 149.15 152.51 149.15Z" stroke="#FFFFFF" stroke-width="0.999857" fill="#FFFFFF"/><path d="M141.11 175.89C137.79 175.89 134.45 176.11 131.16 175.77 130.08 175.66 129.13 174.13 128.13 173.25 129.15 172.39 130.14 170.82 131.18 170.79 137.98 170.57 144.79 170.57 151.59 170.79 152.63 170.82 153.61 172.39 154.62 173.25 153.6 174.13 152.65 175.66 151.56 175.77 148.1 176.1 144.59 175.89 141.11 175.89Z" stroke="#FFFFFF" stroke-width="0.999857" fill="#FFFFFF"/><path d="M173.41 79.9C166.13 79.93 160.06 73.9 160.05 66.62 160.04 59.33 166.08 53.23 173.32 53.21 180.56 53.19 186.7 59.28 186.73 66.52 186.77 73.75 180.67 79.88 173.41 79.9ZM173.48 74.56C177.85 74.49 181.26 70.92 181.22 66.47 181.17 61.99 177.76 58.66 173.25 58.73 168.86 58.79 165.3 62.4 165.38 66.7 165.47 70.98 169.22 74.63 173.48 74.56Z" stroke="#FFFFFF" stroke-width="0.999857" fill="#FFFFFF"/></g></svg>