<svg width="221.38" height="231.7" viewBox="0 0 221.38 231.7" xmlns="http://www.w3.org/2000/svg" xmlns:xlink="http://www.w3.org/1999/xlink" xml:space="preserve" overflow="hidden"><style>
.MsftOfcThm_Text1_lumMod_75_lumOff_25_Fill_v2 {
 fill:#404040; 
}
</style>
<defs></defs><g><path d="M160.25 157.15C171.21 154.51 181.48 151.81 191.02 146.93 194.12 145.34 195.71 143.93 191.33 141.35 186.79 138.67 186.49 132.99 190.38 129.38 194.44 125.62 199.31 122.91 204.52 121.14 208.34 119.84 211.85 121.13 214.05 124.68 216.33 128.35 218.57 132.08 220.44 135.97 223.41 142.14 219.02 148.69 212.33 147.28 206.5 146.05 202.76 148.19 198.29 151.24 186.51 159.26 172.85 162.68 159.07 165.27 154.59 166.11 151.79 168.11 149.21 171.83 136.12 190.72 122.75 209.41 109.43 228.13 106.03 232.9 103.03 232.88 99.69 228.15 86.05 208.84 72.43 189.53 58.86 170.17 57.03 167.55 54.85 165.96 51.6 165.51 40.32 163.92 29.55 160.45 19.03 156.16 14.36 154.26 10.14 151.6 6.44 148.17-2.62 139.75-2.09 129.31 7.9 121.89 12.31 118.61 16.91 115.52 22.21 113.85 25.29 112.88 25.94 111.39 24.83 108.3 16.11 83.83 19.6 60.65 33.33 39.05 46.9 17.69 66.22 4.48 91.54 1.02 126.51-3.77 154.6 8.37 174.56 37.3 189.76 59.32 193.16 83.62 183.84 109.15 178.62 123.44 171.59 136.84 163.49 149.7 162.2 151.77 160.54 153.71 160.25 157.15ZM104.84 162.26C117.49 161.72 130.78 161.26 144 159.49 147.11 159.07 149.22 157.96 150.85 155.32 160.54 139.59 170.02 123.8 176.63 106.38 184.93 84.53 181.76 63.87 170.05 44.64 152.65 16.06 122.45 3.06 89.53 9.13 71.51 12.45 56.72 21.64 45.21 35.91 30.93 53.62 25.04 73.74 29.78 96.15 34.59 118.91 47.63 137.91 59.54 157.35 60.53 158.97 62.2 159.11 63.89 159.34 77.26 161.09 90.71 161.89 104.84 162.26ZM67.07 167.79C67.78 169.21 68.05 169.98 68.5 170.62 79.91 186.61 91.37 202.57 102.73 218.6 104.84 221.57 105.76 219.68 106.99 217.95 115.78 205.61 124.61 193.31 133.37 180.96 136.31 176.82 139.12 172.58 142.39 167.8 117.04 170.54 92.5 170.58 67.07 167.79ZM48.94 156.58C42.65 144.92 35.93 133.68 30.34 121.83 29.54 120.13 28.1 120 26.53 120.6 20.75 122.84 15.18 125.54 10.78 129.97 6.81 133.96 7.03 137.64 11.15 141.68 12.8 143.29 14.66 144.79 16.65 145.93 26.57 151.64 37.55 154.27 48.94 156.58ZM209.87 139.1C212.87 139.49 212.64 138.37 212.01 137.16 211.03 135.26 209.96 133.4 208.93 131.52 208.12 130.03 207.2 128.32 205.2 129.29 202.43 130.63 199.4 131.71 197.48 134.33 197.05 134.91 197.83 135.59 198.46 135.77 202.56 137.01 206.67 138.17 209.87 139.1Z" class="MsftOfcThm_Text1_lumMod_75_lumOff_25_Fill_v2" fill="#404040"/><path d="M104.82 23.2C138.09 23.25 165.46 50.78 165.44 84.19 165.42 117.55 137.54 145.94 104.24 145.23 69.38 144.48 43.85 117.63 43.45 84.13 43.06 50.63 71.38 23.15 104.82 23.2ZM157.19 84.32C157.25 54.64 134.5 31.56 105.03 31.41 75.47 31.26 51.52 54.65 51.43 83.77 51.35 113.02 75.14 137.08 104.22 137.14 133.89 137.2 157.14 114.02 157.19 84.32Z" class="MsftOfcThm_Text1_lumMod_75_lumOff_25_Fill_v2" fill="#404040"/><path d="M114.78 115.88C111.5 115.66 109.72 113.75 108.77 110.76 107.41 106.48 105.89 102.24 104.54 97.95 103.73 95.37 102.48 94.97 100.14 96.38 96.14 98.78 91.9 100.77 87.93 103.22 82.69 106.46 77.78 105.86 73.02 102.44 66.31 97.64 62.13 90.82 58.54 83.62 57.27 81.06 58.13 78.61 60.28 76.9 63.34 74.47 66.76 72.4 70.81 74.19 73.37 75.32 75.83 76.87 78 78.64 81.44 81.43 83.87 79.31 86.37 77.34 87.92 76.12 86.86 75 85.94 73.99 83.8 71.66 81.6 69.38 79.5 67.01 77.27 64.48 75.59 61.56 78.23 58.55 80.92 55.48 84.27 52.89 88.72 55.04 93.36 57.28 97.94 59.7 102.34 62.4 105.12 64.11 107.23 64.31 110.01 62.29 113.91 59.46 118.07 56.93 122.34 54.71 130.87 50.28 142.01 52.37 148.55 59.32 152.16 63.16 151.88 66.27 147.32 69.04 141.06 72.85 134.71 76.52 128.3 80.06 125.47 81.63 124.26 83.66 124.51 86.91 124.98 93.05 125.41 99.2 125.47 105.35 125.52 110.51 119.6 116.06 114.78 115.88ZM116.09 77.41C116.28 75.72 116.17 73.8 116.74 72.12 117.66 69.4 120.27 68.19 122.18 70.21 125 73.18 126.98 71.86 129.42 70.24 131.08 69.14 132.96 68.34 134.57 67.18 136.36 65.88 140.21 65.73 139.63 63.29 138.99 60.63 135.36 60.72 132.72 60.51 129.64 60.27 126.76 60.94 124.14 62.62 120.78 64.77 117.43 66.96 114.06 69.1 102.13 76.69 90.19 84.26 78.27 91.88 77.26 92.53 75.21 92.27 75.52 94.14 75.75 95.55 77.4 95.88 78.57 96.47 80.14 97.26 81.78 97.37 83.4 96.64 88.58 94.3 93.38 91.31 98.15 88.25 99.36 87.47 99.97 86.36 100.01 84.91 100.06 82.59 100.53 80.43 103.3 80.11 106.35 79.75 107.19 82.17 107.99 84.38 110.31 90.8 112.53 97.26 114.86 103.67 115.21 104.62 115.09 106.42 116.78 105.98 118.2 105.62 117.91 104.11 117.75 102.97 116.52 94.52 117.73 85.95 116.09 77.41Z" class="MsftOfcThm_Text1_lumMod_75_lumOff_25_Fill_v2" fill="#404040"/></g></svg>