<svg width="255.48" height="251.01" viewBox="0 0 255.48 251.01" xmlns="http://www.w3.org/2000/svg" xmlns:xlink="http://www.w3.org/1999/xlink" xml:space="preserve" overflow="visible"><defs></defs><g><path d="M184.94 91.19C187.42 97.5 189.29 102.65 191.52 107.65 192.02 108.77 193.74 109.74 195.05 110 197.63 110.51 200.54 109.92 202.91 110.83 205.21 111.71 208.59 113.8 208.72 115.56 209.29 123.04 209.46 130.67 208.49 138.09 208 141.86 203.65 143.57 199.67 142.98 194.2 142.17 191.29 144.29 190.5 149.65 190.43 150.13 190.24 150.63 189.97 151.04 186.11 157.04 184.6 162.26 191.56 167.83 195.26 170.79 193.84 176 190.64 179.54 187.41 183.12 183.91 186.5 180.23 189.61 175.74 193.4 170.47 192.99 166.09 188.06 162.8 184.36 160.12 183.45 155.66 186.23 152.07 188.47 147.71 189.49 143.37 191.18 143.37 193.59 143.49 196.09 143.35 198.56 143 204.42 139.35 208.18 133.48 208.38 128.99 208.53 124.49 208.27 120 208.03 113.53 207.68 110.51 204.41 110.39 197.84 110.35 195.69 110.38 193.53 110.38 191.54 104.3 188.97 98.52 186.53 91.3 183.48 90.35 184.77 89.2 186.88 87.56 188.49 83.12 192.86 77.99 192.91 73.38 188.65 70.32 185.83 67.45 182.8 64.65 179.71 60.01 174.58 59.84 169.34 65.01 164.82 69.13 161.22 69.7 158.22 66.85 153.57 64.73 150.1 63.77 145.92 62.2 141.82 60.02 141.82 57.86 141.86 55.71 141.81 48.94 141.66 45.24 138.21 44.86 131.38 44.65 127.56 44.71 123.71 44.85 119.89 45.14 112.22 48.74 108.87 56.53 108.82 58.35 108.81 60.18 108.82 61.86 108.82 64.42 102.78 66.87 97.01 69.83 90.04 68.43 88.96 66.38 87.73 64.77 86.07 60.58 81.74 60.45 76.67 64.48 72.27 67.52 68.96 70.76 65.82 74.13 62.85 78.82 58.72 84.23 58.58 88.28 63.33 92.16 67.88 95.7 68.59 100.34 65.09 100.99 64.6 101.83 64.25 102.62 64.12 109.46 63.03 112.68 59.74 111.85 52.19 111.33 47.5 115.4 43.81 120.39 43.4 125.51 42.98 130.73 42.96 135.85 43.42 141.48 43.93 144.71 47.95 144.27 54.37 143.92 59.42 145.32 62.26 150.45 62.92 150.93 62.98 151.4 63.23 151.83 63.48 157.93 66.94 163.42 69.39 169.17 62 171.88 58.52 177.1 59.71 180.53 62.71 184.28 65.98 187.77 69.62 190.98 73.43 194.51 77.62 194.19 82.46 190.4 86.52 188.69 88.33 186.61 89.77 184.94 91.19ZM82.17 66.97C79.66 69.19 78.4 70.22 77.23 71.34 69.44 78.76 69.39 78.82 76.71 86.35 78.94 88.64 79.72 90.59 78.14 93.81 75.07 100.04 72.8 106.66 69.71 112.89 68.82 114.68 66.45 116.49 64.49 116.85 61.01 117.49 57.33 117.03 53.57 117.03 53.44 119.16 53.3 120.47 53.28 121.78 53.11 133.19 53.11 133.29 64.44 133.56 67.83 133.64 69.37 134.99 70.45 138.19 72.57 144.45 74.96 150.66 77.84 156.6 79.41 159.84 79.46 162.07 76.82 164.53 74.2 166.97 71.8 169.65 69.53 171.99 73.57 176.02 77.15 179.59 81.76 184.18 83.85 181.61 85.92 179.01 88.05 176.46 90.21 173.88 92.44 173.88 95.52 175.41 101.44 178.36 107.57 180.95 113.8 183.18 117.15 184.38 118.82 185.97 118.6 189.6 118.4 192.87 118.56 196.16 118.56 199.73 124.28 199.73 129.35 199.73 135.11 199.73 135.11 195.84 135.18 192.22 135.09 188.6 135.02 185.42 136.59 183.98 139.54 182.95 145.93 180.71 152.29 178.28 158.42 175.4 161.49 173.96 163.76 173.83 165.9 176.45 168.21 179.27 170.41 182.17 172.71 185.11 175.3 182.86 176.45 181.93 177.53 180.91 185.53 173.35 185.58 173.3 178.16 165.56 175.92 163.22 175.32 161.25 176.9 158.08 179.92 152.01 182.56 145.73 184.91 139.37 186.08 136.21 187.67 134.7 191.04 134.84 194.46 134.98 197.89 134.87 201.25 134.87 201.25 129.01 201.25 123.96 201.25 118.58 197.47 118.58 194.15 118.52 190.84 118.6 187.19 118.69 185.31 117.32 184.16 113.49 182.31 107.33 179.77 101.31 176.87 95.56 175.13 92.1 175.2 89.7 178.08 87.25 179.34 86.17 180.33 84.75 181.65 83.76 185.37 80.97 185.11 78.72 181.74 75.48 174.23 68.28 174.32 68.01 166.98 75.27 164.29 77.93 162.11 78.17 158.67 76.34 153.13 73.4 147.27 70.89 141.3 68.98 137.36 67.73 135.84 65.82 136.07 61.88 136.26 58.62 136.11 55.34 136.11 51.94 130.38 51.94 125.46 51.94 119.87 51.94 119.87 56.04 120.33 59.92 119.68 63.59 119.34 65.52 117.42 67.87 115.59 68.72 109.31 71.67 102.67 73.84 96.36 76.73 93.49 78.04 91.29 78.18 89.25 75.77 86.89 72.95 84.65 70.05 82.17 66.97Z" fill="#FFFFFF"/><path d="M11.86 85.31C9.08 86.56 7.34 87.9 5.52 88 3.72 88.1 1.84 86.97 0 86.38 0.62 84.54 0.69 81.79 1.96 81.03 7.08 77.97 12.46 75.23 18.01 73.04 19.42 72.48 22.77 73.85 23.57 75.27 26.42 80.32 28.83 85.68 30.78 91.14 31.34 92.7 30.39 95.83 29.07 96.8 26.49 98.7 24.5 96.83 23.32 94.2 22.44 92.25 21.49 90.33 20.11 87.41 14.75 101.57 9.94 114.87 10.86 129.37 14.42 185.52 52.87 229.06 108.21 239.34 115.84 240.76 123.77 240.7 131.57 241.1 134.79 241.26 138.1 241.39 138.04 245.44 137.99 249.12 134.8 249.52 131.79 249.58 66.96 250.76 14.58 204.29 4.29 146.02 0.97 127.22 2.97 109.27 9.62 91.6 10.26 89.91 10.83 88.19 11.86 85.31Z" fill="#FFFFFF"/><path d="M227.61 55.14C221.56 49.52 215.74 43.63 209.43 38.32 164.73 0.73 102.55-2 57.62 31.95 50.12 37.62 43.8 44.88 37.08 51.54 34.89 53.71 32.92 56.61 29.69 53.79 26.55 51.04 28.83 48.42 30.78 46.03 72.27-4.69 144.75-14.91 201.52 22.43 212.12 29.41 221.47 38.3 231.34 46.27 231.37 45.81 231.01 44.14 231.66 43.13 232.69 41.52 234.24 39.65 235.88 39.28 236.82 39.07 239.38 41.53 239.49 42.92 239.95 48.88 240.09 54.92 239.62 60.87 239.5 62.38 236.8 64.76 235.14 64.89 229.02 65.37 222.81 65.33 216.68 64.89 215.17 64.78 213.82 62.45 212.4 61.15 213.9 59.73 215.22 57.46 216.95 57.07 219.96 56.4 223.22 56.88 226.38 56.88 226.79 56.31 227.2 55.72 227.61 55.14Z" fill="#FFFFFF"/><path d="M171.28 231.87C188.5 224.51 202.58 214.7 214.55 201.97 233.26 182.07 244.9 158.82 246.93 131.25 248.05 116.11 245.75 101.39 240.85 87.06 240.42 85.8 239.43 84.44 239.66 83.32 240.06 81.34 241.2 79.52 242.03 77.63 243.83 78.68 246.73 79.36 247.23 80.85 249.68 88.07 252.03 95.4 253.43 102.88 263.9 158.82 232.79 206.94 190.07 231.74 184.62 234.9 178.88 237.56 172.67 240.76 174.54 241.73 176.17 242.64 177.85 243.41 180.47 244.62 182.3 246.64 180.4 249.19 179.43 250.49 176.34 251.39 174.75 250.85 169.57 249.1 164.61 246.67 159.63 244.39 156.15 242.8 155.57 240.27 157.65 237.09 160.38 232.91 163.11 228.73 165.84 224.55 167.37 222.2 169.12 219.91 172.26 221.75 175.62 223.71 174.67 226.38 172.85 228.96 172.48 229.5 172.22 230.12 171.28 231.87Z" fill="#FFFFFF"/><path d="M90.38 126.18C90.35 106 107.4 89.19 127.49 89.66 130.35 89.73 133.64 89.68 133.66 93.72 133.69 97.76 130.43 97.69 127.55 97.83 111.21 98.66 99.13 110.06 98.57 125.16 98.02 140.04 109.31 152.47 125.1 154.36 145.62 156.81 162.12 135.92 154.97 116.51 154.57 115.42 153.53 114.27 153.71 113.32 154.09 111.32 155.08 109.44 155.83 107.5 157.6 108.32 160.24 108.66 161.01 110.05 165.04 117.3 165.82 125.24 164.28 133.31 160.81 151.48 142.7 164.61 124.07 162.65 104.79 160.61 90.41 145.05 90.38 126.18Z" fill="#FFFFFF"/><path d="M143.93 91.66C147.01 95.19 149.2 97.7 151.39 100.22 149.93 101.47 148.59 103.57 146.98 103.8 143.9 104.25 138.88 99.7 139.55 97.38 140.03 95.71 141.75 94.4 143.93 91.66Z" fill="#FFFFFF"/></g></svg>