<svg width="203.37" height="223.16" viewBox="0 0 203.37 223.16" xmlns="http://www.w3.org/2000/svg" xmlns:xlink="http://www.w3.org/1999/xlink" xml:space="preserve" overflow="hidden"><style>
.MsftOfcThm_Text1_lumMod_75_lumOff_25_Fill_v2 {
 fill:#404040; 
}
</style>
<defs></defs><g><path d="M0 126.08C0 96.26-0.01 66.43 0.01 36.61 0.01 29.5 0.59 28.93 7.71 28.92 17.54 28.89 27.38 28.72 37.2 29 41.66 29.12 43.06 27.51 42.84 23.2 42.54 17.38 42.89 11.54 42.74 5.71 42.63 1.62 44.47-0.1 48.42 0.01 50.92 0.08 53.42 0.01 55.92 0.01 102.07 0.01 148.22 0.01 194.38 0.01 202.83 0.01 203.37 0.57 203.37 9.15 203.37 67.96 203.37 126.78 203.37 185.59 203.37 193.98 203.11 194.23 194.61 194.24 185.28 194.25 175.95 194.39 166.62 194.18 162.48 194.09 160.94 195.62 161.1 199.72 161.32 205.21 161.21 210.72 161.13 216.21 161.04 222.23 160.05 223.14 153.5 223.14 117.51 223.16 81.52 223.15 45.53 223.15 32.87 223.15 20.2 223.18 7.54 223.13 1 223.11 0.02 222.12 0.02 215.55-0.01 185.73 0 155.91 0 126.08ZM155 125.72C155 97.9 155 70.07 155 42.25 155 35.26 154.98 35.24 148.17 35.24 103.19 35.23 58.2 35.23 13.22 35.24 6.31 35.24 6.29 35.26 6.29 42.17 6.28 98.15 6.28 154.13 6.29 210.1 6.29 216.81 6.32 216.84 12.89 216.84 58.04 216.85 103.19 216.85 148.34 216.84 154.97 216.84 155 216.81 155 210.18 155.01 182.03 155.01 153.87 155 125.72ZM72.51 6.3C72.5 6.53 72.48 6.76 72.47 6.99 73.26 7.21 74.05 7.46 74.85 7.66 101.48 14.46 128.08 21.33 154.75 27.98 159.46 29.16 161.66 31.48 161.18 36.34 161.02 37.99 161.16 39.67 161.16 41.34 161.16 88.01 161.22 134.67 161.07 181.34 161.05 186.24 162.34 188.27 167.54 188.01 175.02 187.63 182.54 187.92 190.04 187.91 197.05 187.9 197.08 187.89 197.08 181.07 197.09 160.9 197.09 140.74 197.08 120.57 197.08 84.57 197.08 48.57 197.08 12.57 197.08 9.34 197.51 6.23 192.49 6.24 152.49 6.35 112.5 6.3 72.51 6.3ZM130.47 28.91C129.66 28.33 129.43 28.05 129.15 27.98 103.4 21.33 77.65 14.72 51.91 8.03 48.94 7.26 48.38 8.66 48.38 11.06 48.39 15.22 48.58 19.39 48.31 23.53 48.04 27.71 49.75 29 53.82 28.97 74.61 28.83 95.39 28.91 116.18 28.91 120.77 28.91 125.34 28.91 130.47 28.91Z" class="MsftOfcThm_Text1_lumMod_75_lumOff_25_Fill_v2" fill="#404040"/><path d="M37.17 45.93C40.83 45.93 44.49 45.83 48.14 45.95 53.56 46.14 56.62 48.72 57 54.09 57.38 59.55 57.33 65.06 57.05 70.53 56.8 75.45 53.66 78.68 48.77 78.86 41.14 79.15 33.48 79.11 25.84 78.89 21.06 78.75 17.92 75.91 17.56 71.16 17.13 65.38 17.08 59.53 17.48 53.75 17.83 48.8 21.14 46.15 26.2 45.96 29.85 45.82 33.51 45.93 37.17 45.93ZM37.56 52.1C34.57 52.1 31.58 52.18 28.6 52.08 25.15 51.97 23.28 53.22 23.45 56.98 23.61 60.62 23.59 64.28 23.46 67.93 23.34 71.32 24.88 72.81 28.19 72.79 33.33 72.76 38.48 72.83 43.62 72.81 50.68 72.78 50.9 72.54 50.93 65.54 50.98 52.09 50.98 52.09 37.56 52.1Z" class="MsftOfcThm_Text1_lumMod_75_lumOff_25_Fill_v2" fill="#404040"/><path d="M37.09 206.16C33.6 206.16 30.11 206.25 26.63 206.14 21.02 205.97 17.61 202.85 17.31 197.22 17.05 192.25 17.04 187.25 17.35 182.28 17.73 176.14 20.83 173.23 26.92 173.09 33.73 172.93 40.54 172.94 47.35 173.08 53.72 173.22 56.92 176.32 57.15 182.55 57.33 187.36 57.36 192.19 57.12 196.99 56.82 203 53.6 205.97 47.56 206.12 44.06 206.24 40.58 206.17 37.09 206.16ZM37.65 199.87C37.65 199.89 37.65 199.91 37.65 199.93 38.65 199.93 39.64 199.93 40.64 199.93 51.97 199.92 50.91 200.64 50.9 189.75 50.9 177.95 52.03 179.11 38.96 179.26 20.54 179.47 23.8 176.1 23.47 195.16 23.46 195.49 23.5 195.82 23.5 196.16 23.49 198.62 24.75 199.85 27.17 199.87 30.67 199.89 34.16 199.87 37.65 199.87Z" class="MsftOfcThm_Text1_lumMod_75_lumOff_25_Fill_v2" fill="#404040"/><path d="M37.32 163.38C33.66 163.38 30 163.48 26.35 163.36 20.75 163.18 17.8 160.76 17.43 155.34 17.06 149.88 17.03 144.36 17.44 138.91 17.84 133.56 20.95 130.97 26.4 130.87 33.55 130.74 40.7 130.75 47.85 130.86 53.72 130.96 56.76 133.78 57.08 139.71 57.36 144.85 57.34 150.02 57.09 155.16 56.84 160.23 53.88 163.05 48.8 163.31 44.99 163.5 41.15 163.35 37.33 163.35 37.32 163.36 37.32 163.37 37.32 163.38ZM36.99 157.11C51.18 157.11 51.18 157.11 50.92 142.71 50.91 142.05 50.88 141.38 50.89 140.72 50.93 138.2 49.58 137.09 47.19 137.09 40.55 137.08 33.91 137.07 27.27 137.13 25.49 137.15 23.77 137.76 23.68 139.82 23.47 145.1 21.88 151.02 24.33 155.49 26.38 159.24 32.01 156.5 36 157.1 36.31 157.15 36.65 157.11 36.99 157.11Z" class="MsftOfcThm_Text1_lumMod_75_lumOff_25_Fill_v2" fill="#404040"/><path d="M37.17 121.26C33.68 121.26 30.19 121.34 26.7 121.24 20.91 121.08 17.66 118.2 17.33 112.44 17.04 107.47 17.05 102.46 17.33 97.49 17.67 91.42 20.5 88.85 26.58 88.76 33.72 88.66 40.87 88.65 48.02 88.77 54 88.87 56.92 91.69 57.14 97.63 57.32 102.44 57.35 107.28 57.11 112.08 56.8 118.28 53.78 121.09 47.64 121.24 44.15 121.33 40.66 121.26 37.17 121.26ZM36.89 115.02C40.04 115.02 43.19 114.92 46.34 115.05 49.8 115.18 51.1 113.58 50.95 110.24 50.8 107.1 50.7 103.92 50.98 100.8 51.39 96.09 49.59 94.07 44.78 94.34 40.15 94.59 35.5 94.37 30.86 94.39 23.72 94.42 23.42 94.64 23.5 101.55 23.66 116.88 21.26 114.86 36.89 115.02Z" class="MsftOfcThm_Text1_lumMod_75_lumOff_25_Fill_v2" fill="#404040"/><path d="M103.49 49.91C114.82 49.91 126.14 49.89 137.47 49.93 139.77 49.94 142.81 49.71 142.94 52.83 143.09 56.41 139.85 56.16 137.41 56.16 114.59 56.2 91.78 56.2 68.96 56.16 66.67 56.16 63.64 56.41 63.51 53.25 63.35 49.61 66.61 49.95 69.03 49.93 80.51 49.87 92 49.91 103.49 49.91Z" class="MsftOfcThm_Text1_lumMod_75_lumOff_25_Fill_v2" fill="#404040"/><path d="M103.03 117.26C92.21 117.26 81.38 117.27 70.56 117.25 69.07 117.25 67.55 117.23 66.09 116.97 64.5 116.69 63.29 115.76 63.41 113.93 63.51 112.4 64.54 111.52 65.96 111.27 67.26 111.04 68.6 110.97 69.93 110.97 92.08 110.95 114.22 110.96 136.37 110.96 137.04 110.96 137.7 110.95 138.37 110.99 140.61 111.13 143.09 111.35 142.98 114.3 142.89 116.88 140.56 117.18 138.5 117.21 134.34 117.28 130.17 117.26 126.01 117.26 118.35 117.27 110.69 117.26 103.03 117.26Z" class="MsftOfcThm_Text1_lumMod_75_lumOff_25_Fill_v2" fill="#404040"/><path d="M103.68 202.2C92.69 202.2 81.71 202.22 70.72 202.18 69.07 202.17 67.39 202.04 65.78 201.71 64.4 201.43 63.37 200.49 63.41 198.92 63.45 197.36 64.47 196.46 65.88 196.21 67.34 195.95 68.85 195.9 70.34 195.9 92.31 195.88 114.28 195.89 136.25 195.89 137.41 195.89 138.59 195.88 139.74 196.03 141.53 196.26 143.06 197.03 143.02 199.09 142.98 201.15 141.38 201.97 139.62 202.03 135.3 202.19 130.97 202.18 126.64 202.19 119 202.22 111.34 202.2 103.68 202.2Z" class="MsftOfcThm_Text1_lumMod_75_lumOff_25_Fill_v2" fill="#404040"/><path d="M103.22 141.1C92.58 141.1 81.94 141.11 71.3 141.09 69.64 141.09 67.97 141.04 66.34 140.78 64.78 140.53 63.44 139.72 63.43 137.9 63.42 136.06 64.75 135.3 66.32 135.03 67.46 134.83 68.64 134.84 69.8 134.84 92.08 134.83 114.36 134.83 136.64 134.83 137.3 134.83 137.97 134.82 138.63 134.87 140.69 135.01 142.97 135.24 142.97 137.89 142.97 140.5 140.67 140.96 138.64 140.99 130.99 141.1 123.35 141.09 115.7 141.11 111.54 141.11 107.38 141.1 103.22 141.1Z" class="MsftOfcThm_Text1_lumMod_75_lumOff_25_Fill_v2" fill="#404040"/><path d="M103.01 150.25C92.18 150.25 81.35 150.25 70.52 150.24 69.19 150.24 67.85 150.24 66.53 150.09 64.92 149.91 63.57 149.18 63.44 147.39 63.3 145.54 64.62 144.71 66.22 144.46 67.69 144.22 69.2 144.12 70.69 144.12 92.35 144.1 114.01 144.06 135.67 144.17 138.39 144.18 142.88 143.07 142.79 147.31 142.7 151.55 138.23 150.15 135.51 150.19 124.67 150.35 113.84 150.26 103.01 150.25Z" class="MsftOfcThm_Text1_lumMod_75_lumOff_25_Fill_v2" fill="#404040"/><path d="M103.27 107.43C91.77 107.43 80.28 107.46 68.78 107.4 66.74 107.39 63.78 108.03 63.58 105.01 63.35 101.63 66.41 101.87 68.68 101.86 91.67 101.82 114.66 101.83 137.65 101.84 138.48 101.84 139.33 101.85 140.14 102 141.74 102.29 143.07 103.07 142.95 104.91 142.83 106.79 141.36 107.33 139.75 107.35 133.75 107.41 127.76 107.41 121.76 107.42 115.6 107.44 109.44 107.43 103.27 107.43Z" class="MsftOfcThm_Text1_lumMod_75_lumOff_25_Fill_v2" fill="#404040"/><path d="M102.7 65.34C91.71 65.34 80.73 65.36 69.74 65.32 68.26 65.32 66.74 65.22 65.3 64.87 64.1 64.58 63.38 63.59 63.51 62.23 63.62 61.11 64.34 60.3 65.33 60.1 66.78 59.81 68.3 59.73 69.78 59.73 92.09 59.71 114.39 59.71 136.7 59.73 138.03 59.73 139.37 59.77 140.68 59.97 141.93 60.16 142.83 60.96 142.92 62.29 143.03 63.88 142.06 64.82 140.62 65.06 139.16 65.31 137.64 65.34 136.15 65.34 125.01 65.35 113.86 65.34 102.7 65.34Z" class="MsftOfcThm_Text1_lumMod_75_lumOff_25_Fill_v2" fill="#404040"/><path d="M103.1 192.4C92.28 192.4 81.46 192.4 70.64 192.4 69.31 192.4 67.97 192.4 66.65 192.29 65.04 192.16 63.61 191.53 63.53 189.7 63.45 187.86 64.8 187.11 66.42 186.89 67.4 186.76 68.41 186.75 69.41 186.75 91.88 186.74 114.36 186.74 136.83 186.75 137.66 186.75 138.5 186.76 139.33 186.81 141.1 186.93 142.89 187.38 142.93 189.47 142.98 191.89 141.01 192.28 139.07 192.36 137.74 192.42 136.41 192.41 135.08 192.41 124.41 192.4 113.75 192.4 103.1 192.4Z" class="MsftOfcThm_Text1_lumMod_75_lumOff_25_Fill_v2" fill="#404040"/><path d="M118.67 75.11C112.34 75.11 106.01 75.16 99.68 75.08 97.29 75.05 94.49 74.73 94.67 71.59 94.83 68.73 97.59 68.85 99.75 68.85 112.41 68.82 125.07 68.81 137.73 68.86 140.05 68.87 142.99 68.77 142.95 72.01 142.92 75.22 139.98 75.1 137.66 75.12 131.33 75.18 125 75.14 118.67 75.14 118.67 75.12 118.67 75.12 118.67 75.11Z" class="MsftOfcThm_Text1_lumMod_75_lumOff_25_Fill_v2" fill="#404040"/><path d="M118.17 98.3C111.85 98.3 105.53 98.32 99.21 98.29 97.17 98.28 94.77 98.15 94.65 95.54 94.52 92.71 96.97 92.11 99.22 92.1 112.36 92.05 125.49 92.06 138.63 92.14 140.67 92.15 142.95 92.67 142.95 95.26 142.95 97.9 140.69 98.26 138.62 98.27 131.8 98.32 124.98 98.29 118.17 98.29 118.17 98.29 118.17 98.29 118.17 98.3Z" class="MsftOfcThm_Text1_lumMod_75_lumOff_25_Fill_v2" fill="#404040"/><path d="M119.04 153.8C125.53 153.8 132.01 153.78 138.5 153.82 140.56 153.83 142.86 154.05 142.97 156.68 143.08 159.29 140.8 159.9 138.76 159.91 125.46 159.99 112.16 159.99 98.86 159.93 96.78 159.92 94.59 159.2 94.65 156.66 94.71 153.97 97.06 153.83 99.09 153.82 105.74 153.77 112.39 153.8 119.04 153.8Z" class="MsftOfcThm_Text1_lumMod_75_lumOff_25_Fill_v2" fill="#404040"/><path d="M119.18 183.24C112.7 183.24 106.21 183.28 99.73 183.22 97.56 183.2 94.88 183.13 94.78 180.28 94.67 177.02 97.57 177 99.88 176.99 112.68 176.93 125.48 176.94 138.28 176.99 140.49 177 143.05 177.25 142.97 180.18 142.9 183.07 140.32 183.21 138.13 183.23 131.81 183.28 125.5 183.24 119.18 183.24Z" class="MsftOfcThm_Text1_lumMod_75_lumOff_25_Fill_v2" fill="#404040"/><path d="M74.7 183.14C72.06 183.14 69.41 183.24 66.77 183.1 65.01 183.01 63.46 182.22 63.4 180.17 63.34 178.11 64.85 177.16 66.62 177.12 71.9 176.99 77.19 177 82.48 177.09 84.25 177.12 85.81 177.96 85.82 180.02 85.84 182.37 84.07 183.06 82.13 183.16 79.66 183.28 77.17 183.19 74.69 183.19 74.7 183.17 74.7 183.16 74.7 183.14Z" class="MsftOfcThm_Text1_lumMod_75_lumOff_25_Fill_v2" fill="#404040"/><path d="M74.56 74.92C71.92 74.92 69.26 75.06 66.63 74.87 64.89 74.74 63.36 73.83 63.43 71.76 63.49 69.97 64.88 69.06 66.44 69.03 71.9 68.91 77.36 68.91 82.81 69.02 84.38 69.05 85.73 69.93 85.74 71.78 85.75 73.55 84.54 74.6 82.97 74.79 80.19 75.12 77.37 75.14 74.56 75.29 74.56 75.16 74.56 75.04 74.56 74.92Z" class="MsftOfcThm_Text1_lumMod_75_lumOff_25_Fill_v2" fill="#404040"/><path d="M74.52 98.19C71.88 98.19 69.23 98.28 66.59 98.16 65 98.09 63.59 97.29 63.44 95.55 63.26 93.51 64.75 92.48 66.5 92.32 71.94 91.81 77.4 91.75 82.83 92.36 84.58 92.56 85.96 93.73 85.71 95.75 85.49 97.54 84.03 98.15 82.45 98.21 79.81 98.31 77.16 98.24 74.52 98.24 74.52 98.21 74.52 98.2 74.52 98.19Z" class="MsftOfcThm_Text1_lumMod_75_lumOff_25_Fill_v2" fill="#404040"/><path d="M74.97 153.92C77.61 153.92 80.26 153.84 82.9 153.95 84.29 154.01 85.5 154.73 85.71 156.28 85.95 158.05 84.91 159.31 83.34 159.54 77.44 160.38 71.5 160.44 65.6 159.48 64.21 159.25 63.28 158.09 63.43 156.57 63.57 155.07 64.65 154.11 66.07 154.04 69.03 153.9 72.01 154 74.98 154 74.97 153.97 74.97 153.94 74.97 153.92Z" class="MsftOfcThm_Text1_lumMod_75_lumOff_25_Fill_v2" fill="#404040"/></g></svg>