<?xml version="1.0" encoding="UTF-8"?>
<!DOCTYPE svg PUBLIC "-//W3C//DTD SVG 1.1//EN" "http://www.w3.org/Graphics/SVG/1.1/DTD/svg11.dtd">
<!-- Creator: CorelDRAW X7 -->
<svg xmlns="http://www.w3.org/2000/svg" xml:space="preserve" width="224px" height="224px" version="1.1" style="shape-rendering:geometricPrecision; text-rendering:geometricPrecision; image-rendering:optimizeQuality; fill-rule:evenodd; clip-rule:evenodd"
viewBox="0 0 224 224"
 xmlns:xlink="http://www.w3.org/1999/xlink">
 <defs>
  <style type="text/css">
   <![CDATA[
    .fil0 {fill:#CF5D5D}
    .fil1 {fill:black;fill-rule:nonzero}
   ]]>
  </style>
 </defs>
 <g id="Слой_x0020_1">
  <metadata id="CorelCorpID_0Corel-Layer"/>
  <g id="_1325568175328">
   <polygon class="fil0" points="43,182 180,182 223,224 202,224 177,195 194,224 29,224 46,195 22,224 0,224 "/>
   <path class="fil1" d="M184 60c-5,-29 -34,-48 -63,-48l-25 0c-77,0 -80,118 7,118l24 0c14,0 15,24 0,24l-26 0c-6,0 -12,-5 -14,-10l-47 8c6,29 34,49 63,49l19 0c42,0 64,-30 63,-60 0,-29 -22,-58 -64,-58l-23 0c-15,0 -15,-25 0,-25l26 0c6,0 11,5 13,11l47 -9z"/>
  </g>
 </g>
</svg>
