<?xml version="1.0" encoding="UTF-8"?>
<!DOCTYPE svg PUBLIC "-//W3C//DTD SVG 1.1//EN" "http://www.w3.org/Graphics/SVG/1.1/DTD/svg11.dtd">
<!-- Creator: CorelDRAW X7 -->
<svg xmlns="http://www.w3.org/2000/svg" xml:space="preserve" width="1748px" height="1240px" version="1.1" style="shape-rendering:geometricPrecision; text-rendering:geometricPrecision; image-rendering:optimizeQuality; fill-rule:evenodd; clip-rule:evenodd"
viewBox="0 0 1748 1240"
 xmlns:xlink="http://www.w3.org/1999/xlink">
 <defs>
  <style type="text/css">
   <![CDATA[
    .fil3 {fill:#7A7A7A}
    .fil4 {fill:#8C8C8C}
    .fil5 {fill:#A4A5A6}
    .fil0 {fill:#CF5D5D}
    .fil6 {fill:#F2F2F2}
    .fil1 {fill:black;fill-rule:nonzero}
    .fil2 {fill:#C2C3C4;fill-rule:nonzero}
    .fil7 {fill:#F2F2F2;fill-rule:nonzero}
   ]]>
  </style>
 </defs>
 <g id="Слой_x0020_1">
  <metadata id="CorelCorpID_0Corel-Layer"/>
  <g id="_1325746631568">
   <polygon class="fil0" points="93,912 282,912 341,970 311,970 278,930 301,970 75,970 98,930 65,970 34,970 "/>
   <path class="fil1" d="M102 1060c-2,0 -4,-1 -6,-1 -3,-1 -5,-1 -7,-2 -2,-1 -3,-2 -5,-4l0 0 4 -4 0 0c2,1 4,3 6,4 3,1 6,1 8,1 5,0 8,-1 10,-2 2,-2 3,-4 3,-7l0 0c0,-2 0,-3 -1,-4 -1,-2 -3,-2 -4,-3 -2,0 -4,-1 -6,-1 0,0 0,0 0,0 0,0 0,0 -1,0l0 -1c-4,0 -7,-1 -9,-2 -2,0 -4,-2 -5,-4 -2,-1 -3,-4 -3,-7l0 0c0,-4 1,-6 3,-9 1,-2 3,-3 6,-5 2,-1 6,-1 10,-1 1,0 3,0 5,0 2,1 3,1 5,2 2,1 4,2 5,3l0 0 -3 5 0 0c-2,-2 -4,-3 -6,-4 -2,0 -4,-1 -6,-1 -4,0 -7,1 -9,3 -2,1 -4,3 -4,6l0 0c0,2 1,4 2,5 1,1 2,2 4,2 2,1 4,1 7,2 0,0 0,0 0,0 0,0 0,0 0,0 0,0 0,0 1,0 0,0 0,0 0,0 3,1 6,1 8,2 2,1 4,2 5,4 2,2 2,5 2,8l0 0c0,3 -1,6 -2,8 -1,2 -4,4 -6,5 -3,1 -7,2 -11,2zm470 -52l6 0 0 51 -6 0 0 -51zm4 45l29 0 0 6 -29 0 0 -6zm0 -22l25 0 0 6 -25 0 0 -6zm0 -23l29 0 0 6 -29 0 0 -6zm-427 30l0 21 -6 0 0 -21 -16 -30 7 0 12 24 12 -24 7 0 -16 30zm39 22c-2,0 -5,-1 -7,-1 -2,-1 -4,-1 -6,-2 -2,-1 -4,-2 -5,-4l0 0 3 -4 0 0c2,1 5,3 7,4 2,1 5,1 8,1 4,0 7,-1 9,-2 3,-2 4,-4 4,-7l0 0c0,-2 -1,-3 -2,-4 -1,-2 -2,-2 -4,-3 -1,0 -3,-1 -6,-1 0,0 0,0 0,0 0,0 0,0 0,0l-1 -1c-3,0 -6,-1 -8,-2 -2,0 -4,-2 -6,-4 -1,-1 -2,-4 -2,-7l0 0c0,-4 1,-6 2,-9 1,-2 4,-3 6,-5 3,-1 6,-1 10,-1 2,0 4,0 5,0 2,1 4,1 6,2 1,1 3,2 5,3l0 0 -4 5 0 0c-2,-2 -4,-3 -6,-4 -2,0 -4,-1 -6,-1 -4,0 -7,1 -9,3 -2,1 -3,3 -3,6l0 0c0,2 1,4 2,5 1,1 2,2 4,2 1,1 3,1 6,2 0,0 0,0 0,0 1,0 1,0 1,0 0,0 0,0 0,0 0,0 0,0 1,0 3,1 5,1 7,2 3,1 4,2 6,4 1,2 2,5 2,8l0 0c0,3 -1,6 -2,8 -2,2 -4,4 -7,5 -3,1 -6,2 -10,2zm40 -49l6 0 0 48 -6 0 0 -48zm-15 -3l36 0 0 6 -36 0 0 -6zm44 0l7 0 0 51 -7 0 0 -51zm4 45l29 0 0 6 -29 0 0 -6zm0 -22l25 0 0 6 -25 0 0 -6zm0 -23l29 0 0 6 -29 0 0 -6zm80 0l6 0 0 51 -6 0 0 -41 0 2 -14 32 -4 0 -14 -31 0 -3 0 41 -6 0 0 -51 6 0 16 35 16 -35zm55 0l6 0 0 51 -6 0 0 -51zm4 23l24 0 0 6 -24 0 0 -6zm0 -23l28 0 0 6 -28 0 0 -6zm56 52c-4,0 -7,-1 -9,-3 -3,-1 -5,-3 -7,-6 -1,-3 -2,-6 -2,-10l0 -15c0,-3 1,-7 2,-10 2,-2 4,-5 7,-6 2,-2 5,-2 9,-2 4,0 7,0 10,2 2,1 4,4 6,6 1,3 2,7 2,10l0 15c0,4 -1,7 -2,10 -2,3 -4,5 -6,6 -3,2 -6,3 -10,3zm0 -6c2,0 5,-1 6,-2 2,-1 3,-2 4,-4 1,-2 2,-4 2,-7l0 -15c0,-2 -1,-5 -2,-7 -1,-2 -2,-3 -4,-4 -1,-1 -4,-2 -6,-2 -2,0 -4,1 -6,2 -2,1 -3,2 -4,4 -1,2 -2,5 -2,7l0 15c0,3 1,5 2,7 1,2 2,3 4,4 2,1 4,2 6,2zm36 -22l17 0c2,0 3,-1 4,-1 2,-1 3,-2 3,-3 1,-2 1,-3 1,-5l0 0c0,-2 0,-4 -1,-5 0,-1 -1,-2 -3,-3 -1,-1 -2,-1 -4,-1l-17 0 0 -6 17 0c3,0 5,1 8,2 2,1 3,3 5,5 1,2 2,5 2,8l0 0c0,3 -1,5 -2,8 -2,2 -3,4 -6,5 -2,1 -4,2 -7,2l-17 0 0 -6zm-4 -24l7 0 0 51 -7 0 0 -51zm19 28l6 -2 13 25 -8 0 -11 -23zm106 -28l6 0 14 42 13 -42 7 0 -17 51 -6 0 -17 -51zm50 0l6 0 0 51 -6 0 0 -51zm4 45l29 0 0 6 -29 0 0 -6zm0 -22l25 0 0 6 -25 0 0 -6zm0 -23l29 0 0 6 -29 0 0 -6zm42 0l6 0 27 43 -1 0 0 -43 6 0 0 51 -6 0 -28 -42 2 0 0 42 -6 0 0 -51zm61 3l6 0 0 48 -6 0 0 -48zm-15 -3l36 0 0 6 -36 0 0 -6zm60 52c-2,0 -5,-1 -7,-1 -2,-1 -4,-1 -6,-2 -2,-1 -4,-2 -5,-4l0 0 3 -4 0 0c2,1 5,3 7,4 3,1 5,1 8,1 4,0 7,-1 9,-2 3,-2 4,-4 4,-7l0 0c0,-2 -1,-3 -2,-4 -1,-2 -2,-2 -3,-3 -2,0 -4,-1 -6,-1 -1,0 -1,0 -1,0 0,0 0,0 0,0l-1 -1c-3,0 -6,-1 -8,-2 -2,0 -4,-2 -6,-4 -1,-1 -2,-4 -2,-7l0 0c0,-4 1,-6 2,-9 2,-2 4,-3 6,-5 3,-1 6,-1 10,-1 2,0 4,0 6,0 1,1 3,1 5,2 1,1 3,2 5,3l0 0 -4 5 0 0c-2,-2 -4,-3 -6,-4 -2,0 -4,-1 -6,-1 -4,0 -7,1 -9,3 -2,1 -3,3 -3,6l0 0c0,2 1,4 2,5 1,1 2,2 4,2 1,1 3,1 6,2 0,0 0,0 1,0 0,0 0,0 0,0 0,0 0,0 0,0 0,0 0,0 1,0 3,1 5,1 7,2 3,1 4,2 6,4 1,2 2,5 2,8l0 0c0,3 -1,6 -2,8 -2,2 -4,4 -7,5 -3,1 -6,2 -10,2zm-690 17l6 0 0 51 -6 0 0 -41 0 2 -14 32 -4 0 -14 -31 0 -3 0 41 -6 0 0 -51 6 0 16 35 16 -35zm390 0l6 0 0 51 -6 0 0 -41 0 2 -14 32 -4 0 -14 -31 1 -3 0 41 -7 0 0 -51 6 0 16 35 16 -35zm-355 0l6 0 19 51 -7 0 -15 -43 -15 43 -7 0 19 -51zm-10 34l27 0 0 5 -27 0 0 -5zm52 -31l6 0 0 48 -6 0 0 -48zm-15 -3l36 0 0 6 -36 0 0 -6zm45 0l6 0 0 51 -6 0 0 -51zm3 45l29 0 0 6 -29 0 0 -6zm0 -22l26 0 0 6 -26 0 0 -6zm0 -23l29 0 0 6 -29 0 0 -6zm46 24l17 0c2,0 3,-1 4,-1 2,-1 3,-2 3,-3 1,-2 1,-3 1,-5l0 0c0,-2 0,-4 -1,-5 0,-1 -1,-2 -3,-3 -1,-1 -2,-1 -4,-1l-17 0 0 -6 17 0c3,0 5,1 8,2 2,1 4,3 5,5 1,2 2,5 2,8l0 0c0,3 -1,5 -2,8 -1,2 -3,3 -5,5 -3,1 -5,2 -8,2l-17 0 0 -6zm-3 -24l6 0 0 51 -6 0 0 -51zm18 28l6 -2 13 25 -8 0 -11 -23zm38 23l-6 0 0 -51 6 0 0 51zm30 -51l6 0 19 51 -7 0 -15 -43 -15 43 -7 0 19 -51zm-10 34l27 0 0 5 -27 0 0 -5zm46 -34l6 0 0 51 -6 0 0 -51zm3 45l29 0 0 6 -29 0 0 -6zm147 -45l6 0 19 51 -6 0 -16 -43 -15 43 -6 0 18 -51zm-10 34l27 0 0 5 -27 0 0 -5zm46 -34l6 0 27 43 -2 0 0 -43 7 0 0 51 -6 0 -28 -43 2 1 0 42 -6 0 0 -51zm67 0l6 0 19 51 -7 0 -15 -43 -15 43 -7 0 19 -51zm-10 34l27 0 0 5 -27 0 0 -5zm79 -10l0 9c0,4 0,7 -2,10 -1,3 -3,5 -6,6 -2,2 -6,3 -9,3 -4,0 -8,-1 -10,-2 -3,-2 -5,-4 -6,-7 -2,-2 -3,-6 -3,-9l0 -15c0,-4 1,-8 3,-11 1,-3 3,-5 6,-6 2,-2 6,-2 9,-2 3,0 6,0 9,1 2,2 4,3 6,6 1,2 2,5 3,8l0 0 -7 0 0 0c0,-2 -1,-4 -2,-5 -1,-2 -2,-3 -4,-4 -1,0 -3,-1 -5,-1 -2,0 -4,1 -6,2 -2,1 -3,3 -4,4 -1,2 -1,5 -1,8l0 15c0,2 0,4 1,6 1,2 2,3 4,4 2,1 4,2 7,2 2,0 4,-1 6,-2 2,-1 3,-2 4,-4 1,-2 1,-4 1,-7l0 -3 -11 0 0 -6 17 0zm15 -24l6 0 0 51 -6 0 0 -51zm3 45l30 0 0 6 -30 0 0 -6zm0 -22l26 0 0 6 -26 0 0 -6zm0 -23l30 0 0 6 -30 0 0 -6zm80 0l6 0 0 51 -6 0 0 -41 1 2 -14 32 -5 0 -14 -31 1 -3 0 41 -6 0 0 -51 6 0 15 35 16 -35zm22 0l6 0 0 51 -6 0 0 -51zm3 45l29 0 0 6 -29 0 0 -6zm0 -22l26 0 0 6 -26 0 0 -6zm0 -23l29 0 0 6 -29 0 0 -6zm43 0l5 0 28 43 -2 0 0 -43 6 0 0 51 -6 0 -27 -43 2 1 0 42 -6 0 0 -51zm61 3l6 0 0 48 -6 0 0 -48zm-15 -3l36 0 0 6 -36 0 0 -6zm-659 69l7 0 18 51 -6 0 -16 -43 -15 43 -6 0 18 -51zm-10 34l27 0 0 5 -27 0 0 -5zm266 -31l6 0 0 48 -6 0 0 -48zm-15 -3l36 0 0 6 -36 0 0 -6zm-415 0l6 0 19 51 -7 0 -15 -43 -15 43 -7 0 19 -51zm-10 34l27 0 0 5 -27 0 0 -5zm46 -34l5 0 28 43 -2 0 0 -43 6 0 0 51 -6 0 -27 -43 2 1 0 42 -6 0 0 -51zm58 45l11 0c4,0 8,-1 10,-3 2,-2 3,-5 3,-9l0 -15c0,-4 -1,-7 -3,-9 -2,-2 -6,-3 -10,-3l-11 0 0 -6 11 0c4,0 8,1 11,2 3,2 5,4 6,6 2,3 2,6 2,10l0 15c0,4 0,7 -2,10 -1,3 -3,5 -6,6 -3,1 -7,2 -11,2l-11 0 0 -6zm-5 -45l6 0 0 51 -6 0 0 -51zm136 52c-2,0 -4,-1 -7,-1 -2,-1 -4,-1 -6,-2 -2,-1 -3,-2 -5,-4l0 0 4 -4 0 0c2,1 4,3 6,4 3,0 5,1 8,1 4,0 8,-1 10,-2 2,-2 3,-4 3,-7l0 0c0,-2 0,-3 -1,-4 -1,-2 -3,-2 -4,-3 -2,0 -4,-1 -6,-1 0,0 0,0 0,0 -1,0 -1,-1 -1,-1l0 0c-4,0 -7,-1 -9,-2 -2,0 -4,-2 -5,-4 -2,-1 -3,-4 -3,-7l0 -1c0,-3 1,-5 2,-8 2,-2 4,-4 7,-5 2,-1 6,-1 9,-1 2,0 4,0 6,0 2,1 3,1 5,2 2,1 3,2 5,3l0 0 -3 5 0 0c-3,-2 -5,-3 -7,-4 -2,0 -4,-1 -6,-1 -3,0 -6,1 -9,3 -2,1 -3,3 -3,6l0 0c0,2 1,4 2,5 1,1 2,2 4,2 1,1 4,1 6,2 1,0 1,0 1,0 0,0 0,0 0,0 0,0 0,0 0,0 1,0 1,0 1,0 3,1 6,1 8,2 2,1 4,2 5,4 1,2 2,5 2,8l0 0c0,3 -1,6 -2,8 -2,2 -4,4 -7,5 -2,1 -6,2 -10,2zm48 0c-3,0 -5,-1 -7,-1 -3,-1 -5,-1 -7,-2 -2,-1 -3,-2 -5,-4l0 0 4 -4 0 0c2,1 4,3 7,4 2,0 5,1 8,1 4,0 7,-1 9,-2 2,-2 3,-4 3,-7l0 0c0,-2 0,-3 -1,-4 -1,-2 -3,-2 -4,-3 -2,0 -4,-1 -6,-1 0,0 0,0 0,0 0,0 0,-1 -1,-1l0 0c-4,0 -7,-1 -9,-2 -2,0 -4,-2 -5,-4 -2,-1 -3,-4 -3,-7l0 -1c0,-3 1,-5 3,-8 1,-2 3,-4 6,-5 2,-1 6,-1 10,-1 1,0 3,0 5,0 2,1 3,1 5,2 2,1 4,2 5,3l0 0 -3 5 0 0c-2,-2 -4,-3 -6,-4 -2,0 -4,-1 -6,-1 -4,0 -7,1 -9,3 -2,1 -4,3 -4,6l0 0c0,2 1,4 2,5 1,1 2,2 4,2 2,1 4,1 7,2 0,0 0,0 0,0 0,0 0,0 0,0 0,0 0,0 1,0 0,0 0,0 0,0 3,1 6,1 8,2 2,1 4,2 5,4 2,2 2,5 2,8l0 0c0,3 0,6 -2,8 -1,2 -4,4 -6,5 -3,1 -7,2 -10,2zm31 -52l6 0 0 51 -6 0 0 -51zm4 45l29 0 0 6 -29 0 0 -6zm0 -22l25 0 0 6 -25 0 0 -6zm0 -23l29 0 0 6 -29 0 0 -6zm50 3l6 0 0 48 -6 0 0 -48zm-15 -3l36 0 0 6 -36 0 0 -6zm119 24l18 0c1,0 3,-1 4,-1 1,-1 2,-2 3,-4 1,-1 1,-2 1,-4l0 0c0,-2 0,-4 -1,-5 -1,-1 -2,-2 -3,-3 -1,-1 -3,-1 -4,-1l-18 0 0 -6 17 0c3,0 6,1 8,2 2,1 4,3 5,5 2,2 2,5 2,8l0 0c0,3 0,5 -2,8 -1,2 -3,3 -5,5 -2,1 -5,2 -8,2l-17 0 0 -6zm-3 -24l6 0 0 51 -6 0 0 -51zm18 28l6 -2 13 25 -7 0 -12 -23zm44 -28l7 0 18 51 -6 0 -16 -43 -15 43 -6 0 18 -51zm-10 34l27 0 0 5 -27 0 0 -5zm62 18c-4,0 -7,-1 -10,-3 -2,-1 -4,-4 -6,-6 -1,-3 -2,-7 -2,-10l0 -14c0,-4 1,-8 2,-10 2,-3 4,-5 6,-7 3,-2 6,-2 10,-2 3,0 5,0 8,1 2,2 4,3 6,6 2,2 3,4 3,7l0 0 -6 0 0 0c0,-1 -1,-3 -2,-4 -2,-2 -3,-3 -5,-4 -1,0 -3,-1 -4,-1 -3,0 -5,1 -6,2 -2,1 -4,3 -4,5 -1,2 -2,4 -2,7l0 14c0,2 1,5 2,7 0,1 2,3 4,4 1,1 3,2 6,2 1,0 3,-1 4,-1 2,-1 3,-2 5,-3 1,-2 2,-3 2,-5l0 0 6 0 0 0c0,3 -2,5 -3,8 -2,2 -4,4 -6,5 -3,1 -5,2 -8,2zm34 -20l26 -32 7 0 -32 39 -1 -7zm-4 -32l6 0 0 51 -6 0 0 -51zm16 24l4 -5 19 32 -7 0 -16 -27zm40 27l-6 0 0 -51 6 0 0 51zm16 -51l6 0 27 43 -1 0 0 -43 6 0 0 51 -6 0 -28 -43 2 1 0 42 -6 0 0 -51zm88 24l0 9c0,4 -1,7 -2,10 -1,3 -3,5 -6,6 -3,2 -6,3 -10,3 -3,0 -7,-1 -9,-3 -3,-1 -5,-3 -7,-6 -1,-2 -2,-6 -2,-9l0 -15c0,-4 1,-8 2,-11 2,-3 4,-5 6,-6 3,-2 6,-2 10,-2 3,0 6,0 8,1 3,2 5,3 6,5 2,3 3,6 4,9l0 0 -7 0 0 0c0,-2 -1,-4 -2,-5 -1,-2 -2,-3 -4,-4 -1,0 -3,-1 -5,-1 -2,0 -4,1 -6,2 -2,1 -3,2 -4,4 -1,2 -2,5 -2,8l0 15c0,2 1,4 2,6 1,2 2,3 4,4 2,1 4,2 6,2 3,0 5,-1 7,-2 1,-1 3,-2 4,-4 0,-2 1,-4 1,-7l0 -3 -11 0 0 -6 17 0z"/>
   <path class="fil1" d="M287 746c-7,-39 -46,-66 -86,-66l-35 0c-106,0 -109,162 10,162l33 0c20,0 20,34 0,34l-36 0c-9,-1 -16,-7 -19,-15l-64 12c7,40 46,67 86,67l26 0c58,0 88,-41 87,-82 0,-40 -30,-80 -88,-80l-33 0c-20,0 -20,-34 0,-34l36 0c9,0 16,6 19,14l64 -12zm299 192l-1 -209c0,-61 -57,-62 -76,-31l-50 82 -47 -82c-18,-31 -79,-30 -79,31l0 209 68 0 -4 -138 34 54c16,24 39,24 56,0l35 -58 -5 142 69 0zm69 -206c-25,0 -47,17 -47,44l0 42 109 0 0 -39 -71 0c-1,-8 5,-10 8,-10l20 0c32,0 48,-21 48,-44 0,-21 -15,-43 -44,-43l-23 0c-21,0 -43,16 -47,39l38 6c1,-4 4,-7 8,-7l23 0c4,0 5,3 5,6 0,3 -1,6 -5,6l-22 0zm324 206l0 -168c0,-50 -42,-91 -91,-91l-36 0c-50,0 -91,41 -91,91l0 168 67 0 0 -59 83 0 0 59 68 0zm-127 -192l36 0c13,0 23,10 23,24l0 41 -83 0 0 -41c0,-14 11,-24 24,-24zm377 192c0,-32 -13,-69 -44,-85 25,-8 44,-42 44,-68l0 -15c0,-50 -41,-90 -90,-90l-31 0c-49,0 -91,40 -91,89l0 169 67 0 0 -69 14 0c35,0 64,34 64,69l67 0zm-67 -168l0 21c0,13 -10,24 -23,24l-55 0c0,-13 0,-32 0,-45 0,-13 10,-24 24,-24l31 0c13,0 23,11 23,24zm218 168l0 -192 63 0 0 -65 -191 0 0 65 63 0 0 192 65 0zm302 0l0 -168c0,-50 -42,-91 -91,-91l-36 0c-50,0 -91,41 -91,91l0 168 67 0 0 -59 83 0 0 59 68 0zm-127 -192l36 0c13,0 23,10 23,24l0 41 -83 0 0 -41c0,-14 11,-24 24,-24z"/>
   <path class="fil2" d="M1229 938l0 169c0,50 -42,91 -91,91l-30 0c-50,0 -91,-41 -91,-91l0 -169 67 0 0 60 77 0 0 -60 68 0zm-121 193l30 0c13,0 23,-11 23,-24l0 -41 -77 0 0 41c0,13 11,24 24,24zm272 -193l0 193 64 0 0 64 -192 0 0 -64 63 0 0 -193 65 0zm301 0c0,32 -13,70 -44,86 25,8 44,41 44,67l0 16c0,49 -40,90 -90,90l-36 0c-49,0 -90,-40 -90,-89l0 -170 67 0 0 70 19 0c35,0 63,-35 63,-70l67 0zm-66 169l0 -22c0,-13 -11,-24 -24,-24l-59 0c0,14 -1,33 -1,46 0,13 11,24 24,24l36 0c13,0 24,-11 24,-24z"/>
   <g>
    <path class="fil3" d="M90 117l0 0 0 0c37,13 109,21 192,21 82,0 154,-8 191,-21 6,20 12,48 15,81 -40,19 -68,60 -68,108 0,47 28,88 68,107 -3,34 -9,62 -15,81 -37,-12 -109,-21 -192,-21 -82,0 -154,9 -191,21 -12,-38 -20,-108 -20,-188 0,-80 8,-151 20,-189l0 0z"/>
    <path class="fil4" d="M922 119l0 0 0 0c38,12 109,21 192,21 82,0 154,-9 191,-21 13,38 21,108 21,188 0,81 -8,151 -21,189 -37,-13 -109,-21 -191,-21 -83,0 -155,8 -192,21 -12,-38 -20,-108 -20,-189 0,-80 8,-150 20,-188l0 0z"/>
    <path class="fil5" d="M540 118l0 0c20,-7 49,-12 84,-16 19,41 60,69 108,69 47,0 89,-28 107,-69 35,4 64,9 84,16l0 0 0 0c-12,38 -21,109 -21,189 0,80 8,150 20,188l1 0c-20,7 -49,13 -84,16 -19,-40 -60,-67 -107,-67 -48,0 -88,27 -107,67 -36,-3 -65,-9 -85,-16l0 0c12,-38 20,-108 20,-188 0,-81 -8,-151 -20,-189z"/>
    <path class="fil5" d="M1305 119l0 0c20,-7 48,-13 83,-16 19,40 60,68 108,68 47,0 88,-28 107,-69 36,4 65,10 85,16l0 1 0 0c-12,37 -20,108 -20,189 0,79 8,149 20,187l0 1c-37,13 -109,21 -191,21 -83,0 -155,-9 -192,-21l0 0c12,-38 20,-109 20,-189 0,-80 -8,-150 -20,-188z"/>
    <path class="fil3" d="M281 310c66,0 119,53 119,118 0,65 -53,118 -119,118 -65,0 -118,-53 -118,-118 0,-65 53,-118 118,-118z"/>
    <path class="fil5" d="M605 188c66,0 119,53 119,118 0,66 -53,118 -119,118 -65,0 -118,-52 -118,-118 0,-65 53,-118 118,-118z"/>
    <path class="fil5" d="M856 188c66,0 119,53 119,118 0,66 -53,119 -119,119 -65,0 -118,-53 -118,-119 0,-65 53,-118 118,-118z"/>
    <path class="fil4" d="M1269 188c65,0 118,53 118,119 0,65 -53,118 -118,118 -66,0 -119,-53 -119,-118 0,-66 53,-119 119,-119z"/>
    <path class="fil4" d="M1114 67c65,0 118,53 118,118 0,65 -53,118 -118,118 -66,0 -118,-53 -118,-118 0,-65 52,-118 118,-118z"/>
    <path class="fil5" d="M1497 342c65,0 118,53 118,119 0,65 -53,118 -118,118 -66,0 -119,-53 -119,-118 0,-66 53,-119 119,-119z"/>
    <g>
     <polygon class="fil6" points="660,299 692,299 692,283 660,283 "/>
     <polygon class="fil6" points="623,299 655,299 655,283 623,283 "/>
     <polygon class="fil6" points="660,278 692,278 692,262 660,262 "/>
     <polygon class="fil6" points="623,278 655,278 655,262 623,262 "/>
     <polygon class="fil6" points="696,278 728,278 728,262 696,262 "/>
     <path class="fil6" d="M739 319l26 0 0 -7 0 -8 0 -21 -23 0 -9 0 -37 0 0 16 11 0c11,0 21,5 27,14l5 6z"/>
     <polygon class="fil6" points="733,278 765,278 765,262 733,262 "/>
     <path class="fil6" d="M836 342l-54 0c-3,0 -5,-3 -5,-5l0 -60c0,-2 2,-5 5,-5l54 0c3,0 5,3 5,5l0 60c0,2 -2,5 -5,5z"/>
     <path class="fil7" d="M819 245c0,-2 2,-4 3,-4 2,0 4,2 4,4l0 41c0,2 -2,4 -4,4 -1,0 -3,-2 -3,-4l0 -41z"/>
     <path class="fil7" d="M805 256c0,-2 2,-3 4,-3 1,0 3,1 3,3l0 42c0,1 -2,3 -3,3 -2,0 -4,-2 -4,-3l0 -42z"/>
     <path class="fil6" d="M609 304l98 0c9,0 17,4 23,12l5 8 118 0 0 14 -21 21 -179 0 -33 -29c-5,-4 -8,-9 -9,-16l-2 -10z"/>
     <path class="fil5" d="M792 330c3,0 5,2 5,4 0,3 -2,5 -5,5 -2,0 -4,-2 -4,-5 0,-2 2,-4 4,-4zm17 0c3,0 5,2 5,4 0,3 -2,5 -5,5 -2,0 -4,-2 -4,-5 0,-2 2,-4 4,-4zm17 0c2,0 4,2 4,4 0,3 -2,5 -4,5 -3,0 -5,-2 -5,-5 0,-2 2,-4 5,-4z"/>
    </g>
    <g>
     <polygon class="fil6" points="1023,267 1212,267 1212,368 1197,368 1197,291 1038,291 1038,368 1023,368 "/>
     <polygon class="fil6" points="1118,219 1165,243 1212,267 1118,278 1023,267 1070,243 "/>
     <g>
      <polygon class="fil6" points="1087,368 1115,368 1115,353 1087,353 "/>
      <polygon class="fil6" points="1087,349 1115,349 1115,334 1087,334 "/>
      <polygon class="fil6" points="1087,330 1115,330 1115,315 1087,315 "/>
      <polygon class="fil6" points="1053,368 1082,368 1082,353 1053,353 "/>
      <polygon class="fil6" points="1053,349 1082,349 1082,334 1053,334 "/>
      <polygon class="fil6" points="1053,330 1082,330 1082,315 1053,315 "/>
      <polygon class="fil6" points="1120,368 1149,368 1149,353 1120,353 "/>
      <polygon class="fil6" points="1120,349 1149,349 1149,334 1120,334 "/>
      <polygon class="fil6" points="1153,368 1182,368 1182,353 1153,353 "/>
     </g>
     <polygon class="fil4" points="1100,260 1116,260 1116,279 1100,279 "/>
     <polygon class="fil4" points="1119,260 1135,260 1135,279 1119,279 "/>
    </g>
    <g>
     <path class="fil7" d="M1563 230c19,12 31,30 36,49 5,20 3,41 -9,60l-34 56c-11,19 -29,32 -48,36 -20,5 -42,3 -60,-9 -19,-11 -31,-29 -36,-48 -5,-20 -2,-42 9,-60l34 -57c11,-18 29,-31 49,-35 19,-5 41,-3 59,8zm-3 6c-17,-10 -37,-12 -55,-8 -18,5 -34,16 -44,33l-34 56c-10,17 -13,37 -8,55 4,18 15,34 32,45 17,10 37,12 55,8 18,-5 34,-16 45,-33l33 -56c11,-17 13,-37 9,-55 -5,-18 -16,-34 -33,-45z"/>
     <path class="fil7" d="M1555 245c15,9 25,23 28,38 4,16 2,33 -7,48l-33 56c-9,14 -23,24 -39,28 -16,4 -33,2 -48,-7 -14,-9 -24,-23 -28,-39 -4,-15 -2,-33 7,-47l33 -56c9,-15 24,-25 39,-28 16,-4 33,-2 48,7zm15 42c-3,-12 -11,-24 -22,-30 -12,-7 -25,-9 -37,-6 -13,3 -24,11 -31,22l-33 56c-7,11 -9,25 -6,37 3,12 11,23 23,30 11,7 25,9 37,6 12,-3 23,-11 30,-22l33 -56c7,-12 9,-25 6,-37z"/>
     <path class="fil7" d="M1493 252c-1,-1 -2,-3 -1,-5 1,-1 3,-2 5,-1l82 49c1,1 2,3 1,5 -1,2 -3,2 -5,1l-82 -49z"/>
     <path class="fil7" d="M1432 356c-2,-1 -2,-3 -2,-5 1,-1 4,-2 5,-1l82 49c2,1 2,3 1,5 -1,2 -3,2 -5,1l-81 -49z"/>
     <path class="fil7" d="M1558 285l-10 16c-1,2 -3,2 -5,1l-34 -20c-1,-1 -2,-3 -1,-5l10 -16 6 4 -8 13 28 17 8 -13 6 3z"/>
     <path class="fil7" d="M1487 388l8 -13 -28 -16 -8 12 -6 -3 10 -16c1,-2 3,-2 5,-1l34 20c1,1 2,3 1,5l-10 16 -6 -4z"/>
     <polygon class="fil7" points="1461,295 1554,352 1550,357 1457,301 "/>
     <path class="fil7" d="M1518 306c5,4 9,9 10,15 2,6 1,12 -2,18 -4,5 -9,9 -15,10l0 0c-6,2 -12,1 -17,-2 -6,-4 -10,-9 -11,-15l0 0c-1,-6 -1,-12 3,-18 3,-5 8,-9 14,-10 6,-2 12,-1 18,2zm4 17c-1,-5 -4,-8 -8,-11 -4,-2 -8,-3 -12,-2 -4,1 -8,4 -10,8 -3,4 -3,8 -2,12l0 0c1,5 3,8 7,11 4,2 8,2 12,2l1 -1c4,-1 7,-3 10,-7 2,-4 3,-8 2,-12z"/>
    </g>
    <g>
     <polygon class="fil6" points="180,249 366,249 366,364 180,364 "/>
     <polygon class="fil6" points="278,399 263,399 263,362 278,362 "/>
     <polygon class="fil6" points="331,396 272,396 214,396 267,381 278,381 "/>
     <polygon class="fil3" points="188,257 357,257 357,346 188,346 "/>
     <polygon class="fil6" points="287,273 333,273 333,281 287,281 "/>
     <polygon class="fil6" points="287,289 333,289 333,297 287,297 "/>
     <polygon class="fil6" points="287,306 333,306 333,314 287,314 "/>
     <polygon class="fil6" points="287,322 333,322 333,330 287,330 "/>
     <polygon class="fil6" points="214,396 272,394 331,396 331,405 214,405 "/>
     <path class="fil3" d="M272 350c2,0 4,2 4,5 0,2 -2,4 -4,4 -3,0 -5,-2 -5,-4 0,-3 2,-5 5,-5z"/>
     <path class="fil6" d="M226 272l24 0c2,0 4,1 4,4l0 8c0,2 -2,4 -4,4l-24 0c-3,0 -4,-2 -4,-4l0 -8c0,-3 1,-4 4,-4z"/>
     <polygon class="fil7" points="228,303 225,332 220,332 222,303 "/>
     <polygon class="fil7" points="249,303 252,332 257,332 254,303 "/>
     <polygon class="fil6" points="228,282 232,282 232,300 228,300 "/>
     <polygon class="fil6" points="244,282 249,282 249,300 244,300 "/>
     <path class="fil7" d="M226 299l23 0c3,0 6,1 7,4l2 3c1,1 1,3 0,4 0,2 -2,3 -3,3l-34 0c-2,0 -3,-1 -4,-3 -1,-1 -1,-3 0,-4l2 -3c2,-3 4,-4 7,-4z"/>
    </g>
   </g>
  </g>
 </g>
</svg>
