<?xml version="1.0" encoding="UTF-8"?>
<!DOCTYPE svg PUBLIC "-//W3C//DTD SVG 1.1//EN" "http://www.w3.org/Graphics/SVG/1.1/DTD/svg11.dtd">
<!-- Creator: CorelDRAW X7 -->
<svg xmlns="http://www.w3.org/2000/svg" xml:space="preserve" width="560px" height="420px" version="1.1" style="shape-rendering:geometricPrecision; text-rendering:geometricPrecision; image-rendering:optimizeQuality; fill-rule:evenodd; clip-rule:evenodd"
viewBox="0 0 560 420"
 xmlns:xlink="http://www.w3.org/1999/xlink">
 <defs>
  <style type="text/css">
   <![CDATA[
    .str1 {stroke:black;stroke-width:9.99924}
    .str2 {stroke:black;stroke-width:0.999215}
    .str0 {stroke:black;stroke-width:4.99962}
    .str3 {stroke:black;stroke-width:4.99962;stroke-linecap:round}
    .str4 {stroke:#C2C3C4;stroke-width:0.999215;stroke-linecap:round;stroke-linejoin:round}
    .fil7 {fill:none}
    .fil10 {fill:black}
    .fil8 {fill:#4F4F4F}
    .fil9 {fill:#7A7A7A}
    .fil11 {fill:#919191}
    .fil6 {fill:#A4A5A6}
    .fil3 {fill:#C2C3C4}
    .fil1 {fill:#E3E5E8}
    .fil4 {fill:#EBEBEB}
    .fil0 {fill:#F2F2F2}
    .fil2 {fill:white}
    .fil5 {fill:black;fill-rule:nonzero}
    .fil12 {fill:#C2C3C4;fill-rule:nonzero}
   ]]>
  </style>
    <clipPath id="id0">
     <path d="M126 43l408 0 0 355 -408 0 0 -355z"/>
    </clipPath>
 </defs>
 <g id="Слой_x0020_1">
  <metadata id="CorelCorpID_0Corel-Layer"/>
  <rect class="fil0" width="560" height="420"/>
  <rect class="fil1" width="201" height="420"/>
  <g id="_1999504749008">
   <g style="clip-path:url(#id0)">
    <image x="126" y="43" width="408" height="355" xlink:href="Material Planning_Images\Material Planning_ImgID1.png"/>
   </g>
  </g>
  <rect class="fil2" x="133" y="50" width="394" height="341"/>
  <rect class="fil3" x="14" y="50" width="103.327" height="4.65431"/>
  <rect class="fil3" x="133" y="14" width="206.59" height="19.0252"/>
  <rect class="fil3" x="14" y="86" width="103.327" height="4.65431"/>
  <rect class="fil3" x="14" y="123" width="103.327" height="4.65431"/>
  <rect class="fil3" x="14" y="174" width="103.327" height="4.65431"/>
  <rect class="fil3" x="14" y="210" width="103.327" height="4.65431"/>
  <rect class="fil3" x="14" y="246" width="103.327" height="4.65431"/>
  <rect class="fil3" x="14" y="283" width="103.327" height="4.65431"/>
  <rect class="fil3" x="14" y="319" width="103.327" height="4.65431"/>
  <rect class="fil3" x="14" y="355" width="103.327" height="4.65431"/>
  <rect class="fil0" x="14" y="55" width="103.327" height="31.6522"/>
  <rect class="fil0" x="14" y="91" width="103.327" height="31.6522"/>
  <rect class="fil0" x="14" y="127" width="103.327" height="31.6522"/>
  <rect class="fil0" x="14" y="178" width="103.327" height="31.6522"/>
  <rect class="fil0" x="14" y="215" width="103.327" height="31.6522"/>
  <rect class="fil0" x="14" y="251" width="103.327" height="31.6522"/>
  <rect class="fil0" x="14" y="287" width="103.327" height="31.6522"/>
  <rect class="fil0" x="14" y="324" width="103.327" height="31.6522"/>
  <rect class="fil0" x="14" y="360" width="103.327" height="31.6522"/>
  <polygon class="fil3" points="113,71 109,66 105,61 105,71 105,81 109,76 "/>
  <polygon class="fil3" points="113,107 109,102 105,97 105,107 105,117 109,112 "/>
  <polygon class="fil3" points="113,143 109,138 105,133 105,143 105,153 109,148 "/>
  <polygon class="fil3" points="113,195 109,190 105,185 105,195 105,205 109,200 "/>
  <polygon class="fil3" points="113,231 109,226 105,221 105,231 105,241 109,236 "/>
  <polygon class="fil3" points="113,267 109,262 105,257 105,267 105,277 109,272 "/>
  <polygon class="fil3" points="113,303 109,298 105,293 105,303 105,313 109,308 "/>
  <polygon class="fil3" points="113,340 109,335 105,330 105,340 105,350 109,345 "/>
  <polygon class="fil3" points="113,376 109,371 105,366 105,376 105,386 109,381 "/>
  <rect class="fil0" x="143" y="60" width="52.0005" height="24.9993"/>
  <rect class="fil0" x="199" y="60" width="67.9998" height="24.9993"/>
  <rect class="fil0" x="331" y="60" width="74.9979" height="24.9993"/>
  <rect class="fil0" x="410" y="60" width="104" height="24.9993"/>
  <rect class="fil1" x="271" y="60" width="47.0009" height="24.9993"/>
  <rect class="fil1" x="331" y="60" width="47.0009" height="24.9993"/>
  <rect class="fil3" x="298" y="60" width="28.9997" height="24.9993"/>
  <rect class="fil3" x="377" y="60" width="28.9997" height="24.9993"/>
  <rect class="fil0" x="141" y="230" width="376" height="4.99962"/>
  <g id="_1999431162016">
   <ellipse class="fil4" transform="matrix(0.706717 0.0175738 -0.0263345 1.07135 195.849 207.653)" rx="23" ry="7"/>
   <path class="fil4" d="M212 198c62,20 60,-26 0,-27 -46,-1 -68,24 -56,31 11,7 23,-15 56,-4z"/>
   <path class="fil5" d="M162 191l5 -39c0,-3 1,-5 2,-6 1,-2 3,-3 4,-4l14 -7c1,-1 3,-1 4,-1 1,0 2,0 3,1 1,0 2,1 3,2 1,1 1,2 2,3l11 35c0,1 0,2 -1,2 0,1 0,1 -1,1l0 0c-1,1 -3,0 -3,-1l-11 -36c0,0 0,-1 -1,-1 0,0 0,-1 -1,-1 0,0 -1,0 -1,0 -1,0 -1,0 -2,0l-13 7c-2,0 -2,1 -3,2 -1,1 -1,3 -1,4l-5 40c0,1 -1,2 -2,2l-1 0c-1,-1 -2,-2 -2,-3z"/>
   <polygon class="fil5" points="208,122 208,147 203,147 203,122 "/>
   <polygon class="fil5" points="227,133 227,151 222,151 222,133 "/>
   <path class="fil6" d="M201 145l29 8 -1 6c0,1 0,1 -1,2l-13 6 -13 7c-2,0 -4,0 -6,0l-24 -12c-1,-1 -2,-2 -2,-2l0 -7 27 -8c1,-1 2,-1 4,0z"/>
   <path class="fil3" d="M202 139l13 6 12 6c1,0 1,1 1,2 0,1 0,1 -1,2l-12 5 -13 7c-2,1 -4,1 -5,0l-14 -7 -11 -5c-1,-1 -2,-1 -2,-2 0,-1 1,-2 2,-2l11 -6 14 -6c1,-1 3,-1 5,0z"/>
   <path class="fil5" d="M197 206l3 -39c0,-2 0,-5 2,-6 1,-2 2,-3 4,-4l14 -7c1,-1 2,-1 4,-1 1,0 2,0 3,1 1,0 2,1 3,2 1,1 1,2 2,3l10 34c1,1 0,2 -1,2l0 0c-2,1 -3,0 -3,-1l-11 -34c0,0 0,-1 -1,-1 0,0 0,-1 -1,-1 0,0 -1,0 -1,0 -1,0 -1,0 -2,0l-14 7c-1,1 -2,1 -2,2 -1,1 -1,3 -2,4l-2 40c0,1 -1,2 -3,2l0 0c-1,0 -1,-1 -2,-1 0,-1 0,-1 0,-2z"/>
   <path class="fil6" d="M207 121l18 18c1,1 7,-4 8,-4 1,-1 2,-2 2,-3l0 -13c0,-2 -1,-4 -4,-5l-22 -12c-2,-1 -4,0 -5,1 -1,0 -6,3 -6,4l6 8c1,2 1,4 3,6z"/>
   <path class="fil3" d="M201 127l23 12c1,0 2,0 3,0 1,-1 1,-2 1,-3l0 -13c0,-2 -1,-4 -3,-5l-23 -12c-1,-1 -2,-1 -3,0 -1,0 -2,1 -2,3l0 13c0,2 2,4 4,5z"/>
  </g>
  <path class="fil4" d="M154 348c1,8 23,14 45,14 28,0 56,-6 47,-20 -10,-14 -95,-12 -92,6z"/>
  <path class="fil4" d="M221 367c0,4 6,6 12,6 7,0 14,-3 12,-8 -3,-5 -25,-4 -24,2z"/>
  <line class="fil7 str0" x1="202" y1="302" x2="202" y2= "349" />
  <line class="fil7 str1" x1="202" y1="259" x2="202" y2= "307" />
  <rect class="fil8" x="175" y="305" width="54.3294" height="7.92436"/>
  <ellipse class="fil8" cx="202" cy="314" rx="27" ry="12"/>
  <ellipse class="fil9" cx="202" cy="304" rx="27" ry="12"/>
  <g id="_1999431156704">
   <rect class="fil0" x="273" y="111" width="123.029" height="18.9976"/>
   <rect class="fil0" x="273" y="149" width="123.029" height="18.9976"/>
   <rect class="fil0" x="273" y="187" width="123.029" height="18.9976"/>
   <rect class="fil2" x="273" y="130" width="123.029" height="18.9976"/>
   <rect class="fil2" x="273" y="168" width="123.029" height="18.9976"/>
  </g>
  <g id="_2035745356544">
   <rect class="fil0" x="273" y="263" width="123.029" height="18.9976"/>
   <rect class="fil0" x="273" y="301" width="123.029" height="18.9976"/>
   <rect class="fil0" x="273" y="339" width="123.029" height="18.9976"/>
   <rect class="fil2" x="273" y="282" width="123.029" height="18.9976"/>
   <rect class="fil2" x="273" y="320" width="123.029" height="18.9976"/>
  </g>
  <line class="fil7 str0" x1="179" y1="342" x2="202" y2= "334" />
  <line class="fil7 str0" x1="225" y1="342" x2="202" y2= "334" />
  <circle class="fil10" cx="180" cy="344" r="5"/>
  <circle class="fil10" cx="224" cy="344" r="5"/>
  <circle class="fil10" cx="202" cy="351" r="5"/>
  <polygon class="fil11" points="313,78 318,74 323,70 313,70 302,70 307,74 "/>
  <polygon class="fil11" points="392,78 397,74 402,70 392,70 381,70 386,74 "/>
  <g id="_2035745343552">
   <circle class="fil7 str2" cx="436" cy="132" r="21"/>
   <circle class="fil7 str2" cx="436" cy="182" r="21"/>
   <circle class="fil7 str2" cx="486" cy="132" r="21"/>
   <circle class="fil7 str2" cx="486" cy="182" r="21"/>
   <g>
    <rect class="fil7 str2" transform="matrix(0.996311 -0.996311 0.910997 0.910997 417.722 137.795)" width="16.0004" height="12.9992" rx="6" ry="6"/>
    <rect class="fil7 str2" transform="matrix(0.996311 -0.996311 0.910997 0.910997 424.996 130.113)" width="16.0004" height="12.9992" rx="6" ry="6"/>
   </g>
   <path class="fil7 str2" d="M486 123c9,0 17,9 17,9 0,0 -8,9 -17,9 -9,0 -16,-9 -16,-9 0,0 7,-9 16,-9z"/>
   <circle class="fil7 str2" cx="486" cy="130" r="7"/>
   <g>
    <polygon class="fil7 str2" points="424,184 443,166 453,176 434,194 424,194 "/>
    <line class="fil7 str2" x1="424" y1="184" x2="434" y2= "194" />
    <line class="fil7 str2" x1="427" y1="187" x2="441" y2= "173" />
    <line class="fil7 str2" x1="431" y1="191" x2="445" y2= "177" />
    <line class="fil7 str2" x1="438" y1="170" x2="448" y2= "180" />
   </g>
   <path class="fil7 str2" d="M478 174l17 0 0 17c0,1 -2,3 -3,3l-11 0c-2,0 -3,-2 -3,-3l0 -17z"/>
   <line class="fil7 str2" x1="475" y1="174" x2="498" y2= "174" />
   <path class="fil7 str2" d="M490 174c0,-3 -1,-4 -4,-4 -2,0 -4,1 -4,4"/>
   <line class="fil7 str2" x1="482" y1="177" x2="482" y2= "190" />
   <line class="fil7 str2" x1="486" y1="177" x2="486" y2= "190" />
   <line class="fil7 str2" x1="491" y1="177" x2="491" y2= "190" />
  </g>
  <g id="_2035745332800">
   <circle class="fil7 str2" cx="436" cy="284" r="21"/>
   <circle class="fil7 str2" cx="436" cy="334" r="21"/>
   <circle class="fil7 str2" cx="486" cy="284" r="21"/>
   <circle class="fil7 str2" cx="486" cy="334" r="21"/>
   <g>
    <rect class="fil7 str2" transform="matrix(0.996311 -0.996311 0.910997 0.910997 417.722 290.218)" width="16.0004" height="12.9992" rx="6" ry="6"/>
    <rect class="fil7 str2" transform="matrix(0.996311 -0.996311 0.910997 0.910997 424.996 282.536)" width="16.0004" height="12.9992" rx="6" ry="6"/>
   </g>
   <path class="fil7 str2" d="M486 275c9,0 17,9 17,9 0,0 -8,9 -17,9 -9,0 -16,-8 -16,-9 0,0 7,-9 16,-9z"/>
   <circle class="fil7 str2" cx="486" cy="283" r="7"/>
   <g>
    <polygon class="fil7 str2" points="424,336 443,318 453,328 434,346 424,347 "/>
    <line class="fil7 str2" x1="424" y1="337" x2="434" y2= "346" />
    <line class="fil7 str2" x1="427" y1="339" x2="441" y2= "325" />
    <line class="fil7 str2" x1="431" y1="343" x2="445" y2= "330" />
    <line class="fil7 str2" x1="438" y1="322" x2="448" y2= "332" />
   </g>
   <path class="fil7 str2" d="M478 327l17 0 0 16c0,2 -2,3 -3,3l-11 0c-2,0 -3,-1 -3,-3l0 -16z"/>
   <line class="fil7 str2" x1="475" y1="327" x2="498" y2= "327" />
   <path class="fil7 str2" d="M490 326c0,-2 -1,-4 -4,-4 -2,0 -4,2 -4,4"/>
   <line class="fil7 str2" x1="482" y1="330" x2="482" y2= "342" />
   <line class="fil7 str2" x1="486" y1="330" x2="486" y2= "342" />
   <line class="fil7 str2" x1="491" y1="330" x2="491" y2= "342" />
  </g>
  <g id="_2035745333344">
   <circle class="fil3" cx="442" cy="24" r="13"/>
   <polygon class="fil0" points="432,27 432,22 439,22 439,16 444,16 444,22 450,22 450,27 444,27 444,33 439,33 439,27 "/>
  </g>
  <g id="_2035745334560">
   <polygon class="fil3" points="478,32 482,27 491,27 491,37 465,37 465,27 474,27 "/>
   <path class="fil12" d="M483 11l0 10 4 0 -9 9 -9 -9 5 0 0 -10 9 0zm0 5m2 5m-2 4m-9 0m-3 -4m3 -5m4 -5"/>
  </g>
  <g id="_2035745331136">
   <polygon class="fil3" points="507,13 513,13 513,17 507,17 507,24 503,24 503,13 507,13 "/>
   <polygon class="fil3" points="507,37 513,37 513,33 507,33 507,26 503,26 503,37 507,37 "/>
   <polygon class="fil3" points="522,13 516,13 516,17 522,17 522,24 527,24 527,13 522,13 "/>
   <polygon class="fil3" points="522,37 516,37 516,33 522,33 522,26 527,26 527,37 522,37 "/>
  </g>
  <g id="_2035745330336">
   <rect class="fil8" x="179" y="260" width="45.7096" height="9.59851"/>
   <rect class="fil8" x="179" y="249" width="45.7556" height="24.7322" rx="12" ry="12"/>
   <rect class="fil9" x="179" y="256" width="45.7556" height="24.7322" rx="12" ry="12"/>
  </g>
  <line class="fil7 str3" x1="181" y1="285" x2="181" y2= "302" />
  <line class="fil7 str3" x1="223" y1="285" x2="223" y2= "302" />
  <rect class="fil8" x="195" y="283" width="14.8716" height="7.03784" rx="3" ry="4"/>
  <rect class="fil9" x="173" y="280" width="14.6315" height="15.2304" rx="6" ry="6"/>
  <rect class="fil9" x="216" y="280" width="14.6315" height="15.2304" rx="6" ry="6"/>
  <path class="fil7 str4" d="M218 154c9,-6 11,-1 13,5"/>
  <line class="fil7 str4" x1="216" y1="155" x2="216" y2= "155" />
  <path class="fil7 str4" d="M176 143c-2,1 -5,2 -6,6"/>
  <line class="fil7 str4" x1="178" y1="142" x2="180" y2= "141" />
  <path class="fil7 str4" d="M187 311c1,1 11,2 16,2"/>
  <path class="fil7 str4" d="M206 313c0,0 2,0 2,0"/>
 </g>
</svg>
