<?xml version="1.0" encoding="UTF-8"?>
<!DOCTYPE svg PUBLIC "-//W3C//DTD SVG 1.1//EN" "http://www.w3.org/Graphics/SVG/1.1/DTD/svg11.dtd">
<!-- Creator: CorelDRAW X7 -->
<svg xmlns="http://www.w3.org/2000/svg" xml:space="preserve" width="1890px" height="709px" version="1.1" style="shape-rendering:geometricPrecision; text-rendering:geometricPrecision; image-rendering:optimizeQuality; fill-rule:evenodd; clip-rule:evenodd"
viewBox="0 0 1890 709"
 xmlns:xlink="http://www.w3.org/1999/xlink">
 <defs>
  <style type="text/css">
   <![CDATA[
    .fil0 {fill:black;fill-rule:nonzero}
   ]]>
  </style>
 </defs>
 <g id="Слой_x0020_1">
  <metadata id="CorelCorpID_0Corel-Layer"/>
  <path class="fil0" d="M262 303c-8,-46 -52,-77 -98,-77l-40 0c-122,0 -125,186 11,186l38 0c22,0 23,39 0,39l-41 0c-10,0 -19,-8 -22,-17l-74 14c9,45 53,76 99,76l30 0c66,0 100,-47 100,-94 -1,-46 -35,-92 -101,-92l-38 0c-23,0 -23,-38 0,-38l41 0c10,0 19,7 22,16l73 -13zm342 220l0 -240c0,-71 -66,-71 -87,-35l-58 94 -54 -94c-20,-36 -90,-36 -91,35l0 240 78 0 -4 -159 39 61c18,29 45,29 64,1l40 -67 -5 164 78 0zm79 -236c-28,0 -53,19 -53,50l0 48 124 0 0 -45 -81 0c-1,-9 6,-12 9,-12l23 0c37,0 55,-24 55,-49 0,-25 -17,-50 -50,-50l-27 0c-24,0 -48,18 -53,44l43 8c2,-5 5,-8 9,-8l27 0c4,0 6,3 6,6 0,4 -2,8 -6,8l-26 0zm372 236l0 -193c0,-58 -48,-104 -105,-104l-41 0c-57,0 -104,46 -104,104l0 193 77 0 0 -69 95 0 0 69 78 0zm-146 -221l41 0c15,0 27,12 27,28l0 46 -95 0 0 -46c0,-16 12,-28 27,-28zm432 221c0,-37 -15,-80 -51,-99 29,-8 51,-47 51,-77l0 -17c0,-57 -47,-104 -103,-104l-36 0c-56,0 -104,47 -104,103l0 194 77 0 0 -80 16 0c40,0 73,39 73,80l77 0zm-77 -193l0 24c0,15 -11,28 -26,28l-63 0c0,-16 0,-37 0,-52 0,-15 12,-28 27,-28l36 0c15,0 26,13 26,28zm250 193l0 -221 72 0 0 -74 -219 0 0 74 72 0 0 221 75 0zm345 0l0 -193c0,-58 -47,-104 -104,-104l-41 0c-57,0 -104,46 -104,104l0 193 77 0 0 -69 95 0 0 69 77 0zm-145 -221l41 0c15,0 27,12 27,28l0 46 -95 0 0 -46c0,-16 12,-28 27,-28z"/>
 </g>
</svg>
